<?xml version="1.0" standalone="no"?>
<!DOCTYPE svg PUBLIC "-//W3C//DTD SVG 20010904//EN"
 "http://www.w3.org/TR/2001/REC-SVG-20010904/DTD/svg10.dtd">
<svg version="1.0" xmlns="http://www.w3.org/2000/svg"
 width="1747.940608pt" height="1842.421533pt" viewBox="0 0 1747.940608 1842.421533"
 preserveAspectRatio="xMidYMid meet">
<metadata>
Created by Potrace Professional 1.1m
</metadata>
<g transform="translate(-284.485106,2086.433471) rotate(-360.00) scale(0.095238,-0.095238)"
fill="#000000" stroke="none">
<path d="M11006 21902 c-4 -3 -36 -11 -72 -17 -35 -7 -94 -26 -131 -43 -37
-17 -87 -39 -111 -49 -24 -10 -52 -27 -61 -38 -10 -10 -24 -16 -31 -13 -8 3
-24 -4 -36 -16 -11 -12 -36 -29 -55 -39 -18 -9 -55 -40 -82 -67 -26 -28 -65
-58 -87 -68 -22 -11 -39 -23 -39 -28 0 -5 -7 -9 -14 -9 -7 0 -41 -27 -75 -59
-35 -33 -74 -63 -87 -68 -13 -5 -24 -16 -24 -24 0 -7 -28 -34 -63 -59 -35 -26
-63 -50 -63 -54 0 -4 -14 -12 -31 -18 -18 -6 -32 -16 -32 -21 0 -7 -79 -90
-178 -186 -14 -13 -69 -68 -118 -118 -22 -22 -40 -45 -40 -52 0 -6 -8 -15 -18
-18 -10 -4 -33 -25 -49 -48 -17 -23 -35 -39 -40 -35 -10 6 -50 -25 -50 -39 0
-4 -31 -40 -68 -80 -108 -116 -142 -155 -142 -166 0 -5 -31 -39 -69 -75 -37
-36 -72 -77 -78 -92 -6 -15 -18 -27 -26 -27 -9 0 -16 -6 -16 -12 0 -6 -31 -43
-69 -82 -37 -39 -68 -76 -68 -82 0 -6 -22 -32 -50 -57 -27 -25 -50 -48 -50
-51 -1 -16 -36 -56 -68 -79 -20 -14 -46 -39 -57 -56 -11 -17 -39 -39 -62 -49
-24 -10 -57 -34 -75 -53 -17 -18 -60 -48 -94 -67 -34 -18 -87 -58 -118 -88
-72 -70 -103 -97 -120 -105 -46 -23 -79 -48 -88 -68 -6 -13 -15 -23 -21 -23
-14 0 -65 -47 -96 -87 -13 -15 -32 -32 -44 -36 -32 -12 -259 -214 -322 -285
-58 -67 -99 -106 -109 -106 -6 0 -15 -15 -20 -34 -5 -18 -18 -38 -29 -44 -41
-23 -68 -47 -105 -92 -116 -141 -170 -198 -190 -198 -7 0 -16 -9 -19 -20 -4
-11 -32 -42 -62 -68 -31 -26 -72 -69 -92 -95 -20 -26 -43 -50 -52 -53 -21 -7
-117 -126 -134 -166 -6 -16 -19 -28 -28 -28 -9 0 -28 -19 -43 -42 -16 -24 -32
-42 -37 -42 -13 0 -42 -34 -131 -150 -22 -28 -43 -50 -48 -50 -5 0 -9 -11 -9
-24 0 -13 -17 -42 -37 -63 -20 -22 -36 -42 -36 -45 0 -3 -25 -39 -56 -79 -109
-144 -155 -204 -169 -219 -8 -9 -30 -42 -49 -74 -19 -32 -50 -77 -70 -102 -19
-24 -34 -53 -34 -65 0 -12 -4 -22 -9 -22 -5 0 -20 -20 -34 -45 -13 -24 -31
-50 -38 -58 -8 -8 -14 -19 -14 -24 0 -6 -28 -47 -63 -93 -35 -45 -63 -89 -63
-98 0 -8 -9 -27 -21 -42 -12 -15 -21 -31 -21 -36 0 -6 -9 -18 -20 -28 -11 -10
-22 -32 -26 -49 -3 -17 -18 -43 -33 -58 -14 -15 -26 -30 -26 -35 0 -5 -7 -15
-16 -22 -9 -8 -14 -20 -11 -28 3 -8 1 -14 -5 -14 -6 0 -18 -18 -27 -39 -9 -22
-27 -52 -40 -66 -13 -14 -33 -43 -44 -63 -11 -20 -36 -57 -55 -84 -20 -26 -41
-59 -47 -73 -6 -15 -28 -48 -49 -74 -45 -56 -79 -111 -89 -146 -4 -13 -20 -39
-36 -56 -15 -17 -52 -77 -82 -133 -29 -56 -66 -121 -81 -143 -15 -21 -27 -45
-27 -52 0 -8 -7 -20 -17 -27 -9 -8 -26 -36 -38 -62 -43 -92 -170 -280 -247
-364 -19 -21 -34 -49 -34 -63 0 -14 -8 -34 -18 -45 -55 -60 -66 -73 -66 -85 0
-6 -7 -19 -16 -28 -8 -8 -16 -24 -15 -34 0 -10 -10 -28 -23 -39 -12 -11 -26
-29 -31 -41 -12 -26 -32 -58 -49 -76 -7 -8 -13 -23 -13 -33 0 -11 -7 -25 -16
-32 -8 -8 -15 -18 -15 -23 0 -5 -10 -18 -21 -30 -12 -12 -21 -32 -21 -46 0
-13 -9 -36 -19 -50 -10 -14 -23 -34 -30 -46 -6 -11 -23 -43 -38 -70 -15 -27
-25 -51 -21 -55 3 -3 -1 -14 -10 -24 -9 -10 -20 -29 -23 -41 -4 -13 -14 -26
-23 -29 -8 -3 -15 -15 -15 -27 0 -11 -10 -30 -22 -42 -22 -20 -44 -53 -57 -84
-4 -9 -11 -23 -16 -32 -6 -9 -15 -26 -20 -39 -21 -47 -54 -114 -75 -150 -12
-20 -31 -60 -43 -89 -11 -29 -34 -70 -51 -92 -17 -21 -31 -45 -31 -53 0 -8 -9
-26 -20 -40 -32 -42 -75 -129 -75 -153 1 -13 -4 -26 -9 -29 -6 -4 -13 -22 -17
-40 -4 -19 -23 -84 -42 -144 -39 -127 -66 -226 -79 -297 -20 -104 -51 -253
-64 -312 -6 -26 -15 -74 -19 -105 -5 -32 -14 -89 -20 -126 -27 -168 -31 -201
-28 -226 1 -15 -1 -30 -6 -33 -5 -3 -9 -26 -9 -50 0 -25 -5 -59 -10 -76 -10
-28 -23 -142 -27 -224 -1 -21 -5 -59 -8 -84 -4 -26 -10 -75 -12 -108 -3 -33
-10 -68 -15 -78 -5 -11 -13 -63 -16 -117 -4 -54 -16 -144 -27 -200 -11 -55
-28 -153 -37 -217 -21 -134 -45 -241 -63 -278 -7 -14 -19 -56 -27 -92 -7 -36
-18 -69 -22 -72 -5 -3 -10 -22 -9 -42 0 -20 -6 -46 -12 -58 -6 -12 -13 -40
-15 -64 -2 -24 -9 -46 -16 -50 -6 -4 -14 -31 -17 -59 -3 -28 -10 -56 -15 -61
-5 -6 -9 -23 -9 -39 0 -16 -9 -54 -20 -85 -11 -30 -28 -84 -38 -118 -10 -35
-24 -75 -29 -89 -12 -29 -13 -33 -27 -106 -5 -26 -13 -54 -18 -62 -11 -19 -24
-86 -35 -180 -5 -38 -11 -73 -15 -79 -3 -5 -9 -47 -12 -94 -3 -46 -10 -109
-15 -141 -6 -32 -8 -129 -6 -217 l4 -160 39 -75 c22 -41 50 -79 61 -84 12 -4
33 -20 47 -35 22 -24 33 -27 96 -27 49 0 74 4 83 15 7 9 20 16 28 16 7 0 23 9
33 19 10 10 29 26 42 35 25 18 75 87 76 107 1 7 15 36 32 65 16 29 34 63 40
76 6 12 20 29 32 36 18 11 21 25 21 79 1 37 5 66 11 66 6 0 11 21 11 47 0 26
-5 48 -10 47 -9 0 -15 -23 -29 -102 -4 -21 -17 -42 -36 -56 -17 -12 -31 -27
-31 -34 0 -7 -19 -26 -42 -42 -26 -18 -54 -53 -73 -89 -62 -119 -148 -168
-201 -115 -14 14 -34 45 -45 69 -11 24 -24 44 -29 44 -10 0 -12 46 -2 55 8 9
8 150 -1 258 -6 83 -5 92 41 217 15 41 27 86 27 100 0 14 14 48 32 74 17 25
31 55 31 66 0 21 10 34 70 93 37 36 43 49 39 72 -4 16 -1 45 5 64 16 51 26
147 27 258 0 52 3 96 6 95 29 -2 32 6 51 144 4 29 11 58 14 64 4 6 10 44 13
84 3 40 10 99 15 131 5 31 10 67 11 78 1 41 26 140 43 172 5 10 12 27 17 38 9
26 7 18 30 95 10 34 22 67 26 73 19 26 74 134 74 146 0 7 9 31 21 54 12 22 21
46 21 53 0 6 16 44 36 84 62 124 132 279 132 294 0 7 4 15 8 17 11 5 76 132
76 149 0 8 9 26 21 41 12 15 21 38 21 51 1 14 8 34 16 45 9 11 16 33 16 48 0
16 9 37 20 47 12 10 24 29 28 41 17 56 102 217 114 217 22 0 28 -17 16 -48 -6
-16 -13 -56 -15 -88 -3 -32 -10 -75 -16 -95 -6 -21 -14 -80 -18 -132 -3 -52
-10 -99 -15 -106 -5 -6 -11 -39 -13 -73 -3 -34 -9 -74 -15 -88 -6 -16 -7 -64
-3 -116 4 -49 4 -92 0 -94 -4 -3 -13 -48 -20 -100 -7 -52 -16 -121 -21 -152
-18 -118 -19 -986 -1 -1062 14 -60 14 -173 0 -220 -6 -20 -12 -74 -15 -120 -2
-46 -7 -96 -11 -110 -4 -15 -14 -62 -22 -105 -7 -44 -19 -103 -25 -132 -6 -29
-16 -87 -22 -130 -5 -43 -14 -83 -19 -89 -5 -7 -12 -52 -15 -101 -2 -49 -10
-102 -16 -119 -7 -16 -13 -49 -15 -73 -1 -24 -6 -50 -11 -57 -11 -17 -28 -170
-21 -188 3 -8 1 -14 -4 -14 -5 0 -15 -51 -23 -113 -7 -62 -17 -130 -23 -150
-5 -20 -15 -70 -21 -110 -6 -40 -15 -78 -20 -84 -5 -6 -13 -60 -17 -119 -4
-59 -11 -110 -16 -113 -5 -3 -9 -27 -9 -53 0 -26 -7 -64 -16 -84 -8 -21 -15
-68 -15 -104 -1 -37 -6 -80 -12 -96 -6 -16 -13 -93 -15 -170 -2 -77 -9 -155
-15 -174 -6 -19 -11 -60 -11 -91 0 -31 -3 -135 -6 -230 -7 -249 -5 -533 5
-560 5 -12 12 -76 17 -141 4 -65 12 -121 17 -124 5 -3 9 -27 9 -52 0 -25 5
-57 10 -70 11 -25 34 -212 33 -265 0 -17 5 -35 12 -39 6 -4 15 -33 19 -63 12
-95 41 -212 58 -230 8 -9 15 -25 15 -35 0 -27 36 -130 78 -220 21 -44 38 -91
38 -104 0 -14 14 -52 31 -85 17 -33 32 -71 32 -84 0 -12 7 -32 16 -43 8 -11
15 -29 15 -39 0 -10 7 -22 15 -27 8 -4 30 -37 49 -71 18 -35 49 -85 67 -110
19 -26 45 -68 58 -92 14 -25 29 -45 33 -45 5 0 16 -14 25 -31 9 -18 20 -32 26
-32 5 0 35 -28 67 -61 51 -53 63 -61 90 -57 27 4 32 1 32 -17 0 -21 5 -22 75
-19 49 1 77 7 80 15 2 7 11 13 19 13 8 0 19 9 25 21 7 12 18 18 27 14 10 -3
19 3 25 19 6 14 29 46 53 72 35 39 42 55 42 91 0 24 5 47 10 50 6 4 14 29 18
56 3 27 13 63 21 78 8 16 15 60 14 102 0 40 5 86 11 101 9 23 8 31 -8 43 -10
7 -26 14 -36 14 -27 1 -67 -61 -82 -125 -7 -32 -22 -84 -33 -116 -12 -32 -25
-73 -29 -91 -15 -57 -47 -113 -72 -124 -13 -6 -23 -19 -24 -28 0 -27 -12 -31
-69 -23 -46 6 -59 15 -123 79 -39 40 -78 89 -86 108 -9 20 -22 40 -30 44 -25
15 -80 101 -80 125 0 13 -7 26 -15 29 -8 3 -27 29 -41 56 -13 28 -34 70 -46
93 -12 23 -25 58 -29 77 -4 19 -17 44 -28 55 -11 11 -19 32 -19 46 0 14 -5 28
-11 32 -6 3 -10 16 -11 27 0 11 -6 31 -14 44 -8 13 -35 85 -60 160 -24 75 -48
141 -53 146 -5 6 -9 30 -9 53 0 24 -4 48 -9 53 -11 13 -36 102 -32 116 6 20
-13 164 -27 203 -8 22 -17 73 -21 112 -3 40 -11 101 -16 136 -21 125 -39 470
-35 646 3 125 4 269 2 281 -1 4 1 14 5 23 3 9 8 51 11 95 3 43 6 85 7 94 1 9
6 65 11 126 5 61 12 141 15 179 3 37 13 111 21 165 9 53 16 113 15 132 0 19 4
39 8 43 5 4 9 11 9 15 13 119 20 158 32 177 7 12 14 47 13 78 0 46 23 197 48
308 2 12 14 85 27 163 23 146 38 238 48 284 3 14 7 38 9 52 8 62 30 187 37
221 28 121 34 141 38 146 11 11 40 -18 49 -48 5 -16 13 -40 18 -51 14 -34 43
-112 61 -163 8 -26 22 -57 30 -68 8 -11 14 -31 15 -44 0 -31 50 -77 83 -77 15
1 36 8 47 16 11 9 29 15 40 15 10 1 19 7 19 16 0 8 8 21 19 29 15 11 19 25 17
73 -1 34 -7 67 -13 74 -6 7 -18 37 -26 66 -9 29 -28 83 -43 120 -16 37 -28 78
-28 91 0 13 -5 27 -10 30 -14 9 -14 72 0 86 15 15 -10 69 -28 62 -8 -3 -17 -1
-20 5 -9 15 -47 12 -48 -3 -1 -7 -1 -40 1 -74 1 -33 -1 -60 -4 -60 -21 0 -44
44 -47 90 -2 28 -7 57 -13 63 -5 7 -17 63 -26 126 -12 90 -14 128 -5 178 17
89 32 183 37 223 7 62 17 122 31 192 37 178 82 426 96 525 4 31 14 65 23 75
10 12 13 28 9 46 -4 15 -3 42 3 61 12 36 22 96 27 154 1 20 8 67 15 105 7 37
14 75 16 84 1 8 5 25 9 36 4 12 12 52 17 90 6 37 13 80 17 94 3 14 10 45 15
68 6 23 17 73 26 111 9 37 22 96 28 131 6 34 22 112 36 173 13 61 28 134 32
163 4 29 13 66 20 84 19 45 34 106 43 173 4 32 13 70 20 84 8 14 21 64 30 110
9 46 29 129 44 184 15 55 34 128 42 163 8 34 21 81 29 105 9 23 21 63 28 89
19 69 53 170 64 191 6 11 10 29 10 42 0 14 11 62 26 108 14 46 34 116 44 155
9 39 21 71 26 71 5 0 9 7 9 15 0 15 28 112 42 148 5 11 17 47 27 79 9 31 33
91 53 131 20 41 36 82 36 90 0 9 6 25 15 36 8 12 15 30 16 42 0 12 9 29 21 39
12 10 21 26 21 35 0 23 43 99 56 99 5 0 7 9 4 21 -3 12 -1 24 5 27 12 8 71
133 72 153 0 8 9 26 21 41 11 14 20 30 20 36 0 6 12 34 26 63 14 29 33 69 42
90 10 20 25 48 33 63 24 42 152 316 152 325 0 4 7 14 15 21 9 7 16 23 16 34 0
12 13 43 30 70 40 66 96 186 96 207 0 10 13 35 29 56 16 20 29 40 29 43 1 2 9
23 19 45 10 23 18 47 18 54 0 7 8 24 19 38 11 14 23 35 27 47 3 13 16 31 27
41 12 11 21 24 21 30 0 13 45 105 56 113 4 3 21 35 38 70 16 34 35 66 42 70 6
4 24 32 39 62 15 30 36 60 47 68 11 8 20 21 20 31 0 9 11 34 24 54 90 137 108
164 121 179 12 15 23 30 96 127 14 19 38 50 53 67 15 18 35 46 46 64 11 17 26
35 34 40 8 4 14 13 14 19 0 6 15 25 34 44 19 18 46 49 61 68 14 19 38 48 52
64 14 16 53 62 86 102 32 40 81 98 107 130 26 32 77 93 113 137 87 105 93 112
132 150 172 169 243 235 262 249 13 9 44 36 70 60 26 25 52 45 56 45 5 0 29
21 54 47 25 26 71 64 103 85 31 21 63 46 70 55 7 10 39 38 71 64 31 25 62 51
68 58 19 20 87 69 97 69 5 0 20 14 32 31 13 17 28 32 34 32 6 0 45 24 87 55
128 94 162 113 198 111 19 0 54 4 77 11 23 6 67 11 98 11 38 0 77 10 118 28
54 24 59 29 46 43 -19 19 -85 38 -100 29 -14 -9 -41 14 -41 33 0 9 7 18 16 22
10 3 28 16 41 28 44 40 57 49 75 49 23 0 108 64 109 81 0 7 13 13 30 13 27 0
73 27 101 59 6 6 26 18 45 26 19 8 34 18 34 23 0 4 6 8 14 8 7 0 31 16 53 36
22 20 44 35 48 32 4 -3 18 6 31 20 13 14 31 23 41 20 10 -2 37 8 60 22 23 14
59 36 81 48 22 12 40 26 40 32 0 6 4 9 9 6 5 -3 35 3 68 15 32 11 66 21 75 21
9 0 28 7 42 16 24 16 26 16 26 -2 0 -22 -104 -130 -144 -150 -13 -7 -24 -18
-24 -26 0 -7 -11 -20 -25 -27 -14 -7 -36 -27 -48 -44 -13 -17 -35 -36 -49 -41
-15 -6 -33 -26 -42 -47 -8 -21 -22 -40 -31 -43 -8 -4 -15 -13 -15 -20 0 -16
-85 -89 -103 -89 -7 0 -12 -4 -12 -10 0 -5 -7 -16 -14 -23 -18 -19 -49 -82
-49 -100 0 -8 -7 -17 -15 -20 -8 -3 -32 -33 -53 -67 -20 -34 -44 -64 -53 -67
-15 -6 -64 -90 -60 -104 1 -4 -9 -19 -22 -33 -38 -42 -47 -54 -55 -81 -9 -32
-89 -156 -100 -156 -4 0 -21 -28 -37 -61 -16 -33 -44 -83 -64 -110 -19 -28
-35 -57 -35 -64 0 -8 -7 -21 -16 -28 -8 -7 -15 -19 -15 -26 0 -16 -92 -194
-112 -216 -8 -9 -14 -25 -14 -35 0 -17 -20 -59 -34 -69 -3 -3 -12 -27 -19 -53
-13 -49 -46 -94 -70 -94 -7 0 -17 -12 -20 -26 -4 -15 -13 -32 -22 -39 -9 -8
-13 -22 -9 -40 4 -19 0 -37 -15 -55 -12 -15 -21 -37 -21 -48 0 -12 -7 -24 -16
-27 -8 -3 -25 -27 -37 -54 -12 -26 -26 -47 -32 -47 -5 0 -10 -17 -10 -37 0
-25 -9 -47 -31 -71 -22 -26 -31 -49 -34 -85 -3 -28 -10 -54 -17 -59 -7 -4 -10
-15 -7 -25 5 -11 1 -20 -10 -24 -10 -4 -16 -18 -16 -35 0 -17 -7 -32 -14 -35
-8 -3 -20 -25 -28 -49 -9 -25 -26 -52 -39 -60 -13 -9 -21 -21 -18 -27 6 -9 -2
-28 -40 -105 -4 -10 -8 -32 -8 -49 0 -17 -6 -33 -13 -35 -12 -4 -19 -23 -23
-67 -2 -12 -13 -35 -26 -51 -12 -16 -22 -35 -22 -42 -1 -7 -12 -37 -27 -66
-14 -30 -26 -71 -26 -91 0 -20 -4 -39 -10 -42 -5 -4 -12 -38 -16 -77 -4 -39
-16 -91 -27 -115 -11 -25 -20 -61 -20 -81 0 -20 -5 -39 -11 -43 -6 -3 -10 -25
-10 -47 0 -22 -6 -44 -12 -48 -7 -4 -9 -31 -5 -73 4 -51 2 -71 -10 -83 -10 -9
-16 -37 -17 -68 -1 -30 -5 -53 -10 -53 -5 0 -10 -28 -10 -61 0 -33 -8 -79 -17
-102 -9 -23 -16 -52 -15 -63 0 -12 -4 -39 -10 -60 l-10 -38 -96 2 c-124 3
-232 -10 -284 -35 -22 -11 -54 -23 -71 -27 -20 -4 -32 -15 -37 -32 -4 -19 -11
-25 -24 -21 -13 4 -28 -6 -48 -31 -16 -20 -38 -36 -49 -36 -12 0 -21 -5 -21
-10 0 -5 -22 -22 -50 -38 -27 -16 -67 -45 -89 -64 -22 -20 -45 -35 -51 -35
-14 0 -51 -43 -51 -61 0 -7 -7 -13 -16 -13 -8 0 -47 -32 -87 -71 -39 -39 -103
-98 -142 -132 -39 -33 -70 -67 -70 -75 0 -8 -30 -45 -67 -82 -36 -38 -71 -81
-78 -96 -7 -15 -17 -27 -23 -27 -6 0 -11 -7 -11 -15 0 -9 -12 -28 -26 -43 -14
-15 -28 -43 -32 -61 -5 -18 -24 -53 -43 -76 -20 -24 -35 -50 -35 -59 0 -8 -6
-20 -12 -26 -6 -6 -13 -27 -16 -46 -4 -20 -15 -54 -27 -77 -15 -29 -19 -53
-15 -79 5 -31 1 -42 -20 -62 -14 -14 -23 -30 -20 -35 7 -10 -10 -97 -29 -151
-21 -61 -47 -322 -43 -441 11 -314 17 -377 36 -389 5 -3 9 -16 9 -29 0 -13 7
-33 15 -44 10 -14 13 -39 10 -77 -3 -31 0 -72 6 -90 5 -18 13 -86 16 -153 4
-66 11 -123 16 -126 5 -3 12 -32 16 -63 4 -32 9 -65 13 -73 3 -9 6 -23 7 -32
3 -17 23 -107 39 -173 6 -23 15 -50 21 -60 5 -11 9 -35 9 -55 0 -20 4 -39 9
-42 5 -3 15 -28 23 -56 7 -27 17 -54 21 -60 9 -12 10 -17 10 -48 0 -12 5 -19
11 -15 6 3 10 -6 10 -23 1 -16 8 -39 16 -50 9 -11 16 -30 16 -41 0 -11 8 -32
19 -47 11 -16 40 -71 65 -123 25 -52 61 -116 80 -143 19 -26 35 -53 35 -58 0
-6 14 -24 31 -41 16 -18 55 -79 85 -136 29 -58 61 -112 69 -121 8 -9 15 -20
15 -24 0 -4 11 -26 26 -49 14 -23 26 -48 26 -56 0 -8 7 -21 17 -29 16 -13 38
-51 72 -125 14 -30 15 -48 7 -94 -8 -50 -7 -61 10 -83 11 -14 20 -35 20 -48 1
-42 67 -97 103 -85 13 4 23 0 27 -10 9 -23 51 -20 85 7 22 17 27 28 23 51 -5
22 -1 31 20 42 20 10 25 20 21 36 -3 12 -6 27 -6 34 0 8 -7 14 -16 14 -11 0
-15 11 -15 36 0 27 -6 39 -24 48 -36 19 -60 54 -60 89 0 18 -10 42 -21 55 -11
12 -24 34 -27 48 -4 15 -16 30 -27 34 -12 4 -39 47 -71 114 -28 59 -60 115
-72 123 -11 8 -32 40 -47 72 -15 32 -40 72 -55 89 -15 18 -31 44 -34 59 -6 27
-71 104 -88 104 -6 0 -10 11 -10 25 0 14 -7 31 -16 38 -8 7 -16 21 -15 31 0
10 -10 31 -21 45 -12 15 -21 34 -21 42 0 8 -9 23 -20 33 -11 10 -24 36 -28 57
-4 21 -18 49 -32 63 -14 14 -28 41 -32 61 -3 20 -11 38 -16 41 -5 4 -9 18 -9
32 0 14 -4 34 -9 44 -12 23 -33 112 -33 138 0 11 -7 33 -16 50 -8 16 -15 54
-15 84 0 30 -4 57 -9 60 -5 3 -7 19 -4 36 2 17 -1 34 -7 38 -8 5 -12 48 -12
116 0 60 -4 110 -10 112 -15 5 -30 126 -32 245 -1 58 -3 122 -6 142 -14 128
-18 153 -22 160 -8 13 -17 226 -17 378 1 148 7 202 23 192 10 -6 32 77 39 146
2 23 9 47 15 52 5 6 10 23 10 37 0 25 29 125 55 190 17 40 42 98 52 118 5 11
19 43 30 72 21 53 58 104 140 192 22 24 47 59 55 77 8 19 20 35 26 35 14 0
241 226 241 240 0 6 6 12 13 12 8 0 30 16 50 36 19 20 42 37 49 37 8 0 25 12
39 26 13 15 31 27 39 27 8 0 21 9 28 21 8 12 30 29 50 37 20 8 36 23 36 32 0
12 6 15 22 11 16 -4 26 2 39 25 10 17 26 31 35 31 10 0 24 6 32 13 19 18 83
40 116 40 16 0 32 7 37 16 6 10 27 18 52 20 23 1 48 6 54 10 18 11 25 -36 19
-127 -14 -207 -19 -260 -29 -279 -6 -10 -8 -23 -5 -28 4 -6 2 -13 -3 -16 -6
-4 -6 -21 1 -45 7 -27 7 -56 0 -92 -6 -29 -10 -100 -8 -158 1 -57 -2 -110 -7
-117 -10 -13 -13 -250 -3 -266 2 -4 0 -22 -5 -38 -9 -27 -16 -119 -26 -340 -3
-85 -26 -222 -39 -237 -8 -11 -10 -56 -8 -283 1 -150 5 -214 12 -221 12 -12 9
-49 -3 -41 -12 7 -6 -32 13 -81 7 -20 8 -79 1 -184 -6 -85 -10 -191 -9 -234 0
-43 -2 -81 -6 -84 -5 -4 -20 -136 -36 -320 -3 -37 -22 -169 -38 -268 -6 -38
-12 -126 -15 -198 -2 -71 -7 -134 -11 -141 -8 -12 -11 -34 -18 -112 -14 -152
-18 -182 -32 -222 -10 -29 -12 -50 -6 -57 6 -7 6 -16 -1 -23 -8 -8 -7 -25 2
-57 7 -25 12 -81 11 -123 -2 -60 2 -83 16 -98 16 -17 18 -55 21 -321 1 -166 5
-373 9 -459 11 -246 11 -331 2 -402 -7 -53 -5 -73 10 -104 18 -39 20 -80 16
-306 -1 -54 2 -106 7 -115 6 -9 6 -27 2 -39 -9 -22 2 -207 16 -284 4 -23 8
-54 8 -68 1 -14 6 -32 13 -38 6 -7 12 -55 13 -107 1 -72 6 -105 22 -136 18
-35 19 -50 11 -121 -10 -92 -3 -227 13 -247 6 -7 15 -47 20 -89 12 -106 37
-232 50 -257 7 -12 12 -41 12 -63 0 -23 3 -44 7 -48 4 -4 9 -13 11 -20 1 -7
10 -39 18 -71 9 -31 16 -68 17 -80 0 -13 4 -27 10 -30 6 -4 11 -34 11 -68 0
-43 4 -65 16 -75 22 -17 38 -57 42 -102 7 -81 19 -124 38 -146 12 -13 22 -36
22 -52 0 -16 13 -54 30 -85 16 -30 30 -61 30 -68 0 -7 9 -32 20 -55 38 -80 88
-210 105 -276 10 -36 30 -78 44 -94 14 -16 24 -33 22 -38 -2 -5 5 -21 14 -36
10 -14 19 -37 20 -51 2 -14 10 -34 19 -44 15 -17 53 -83 112 -196 15 -29 36
-66 47 -82 11 -15 17 -35 14 -43 -3 -8 7 -24 25 -37 17 -12 30 -31 30 -41 0
-11 12 -30 26 -44 15 -13 32 -40 38 -59 6 -19 25 -45 42 -57 17 -12 31 -31 31
-43 0 -11 5 -26 10 -33 51 -63 63 -82 69 -118 4 -23 15 -50 24 -60 9 -10 16
-33 16 -51 0 -24 7 -36 24 -44 15 -6 25 -20 25 -34 0 -13 9 -35 21 -50 12 -15
21 -31 21 -37 0 -6 7 -13 16 -16 8 -4 16 -19 16 -34 0 -30 89 -202 114 -222 9
-6 13 -15 9 -20 -4 -4 -4 -12 1 -19 4 -6 15 -33 23 -58 8 -26 25 -64 39 -83
13 -20 24 -42 24 -50 0 -7 21 -28 47 -46 26 -18 57 -51 68 -74 12 -23 26 -42
32 -42 6 0 9 -4 5 -9 -3 -5 2 -15 10 -22 9 -7 16 -18 16 -25 0 -7 13 -26 28
-42 15 -17 39 -52 52 -79 14 -27 41 -65 61 -85 20 -20 37 -45 37 -55 0 -11 22
-34 48 -52 26 -19 47 -37 47 -42 0 -14 85 -92 100 -93 7 0 16 -7 19 -15 4 -9
13 -13 21 -10 8 3 18 -2 21 -11 4 -9 12 -16 18 -16 7 0 54 -43 105 -94 56 -57
101 -95 114 -95 12 0 36 -18 55 -42 18 -23 39 -42 46 -42 6 0 23 -12 37 -26
13 -15 29 -27 36 -27 6 0 17 -9 24 -21 8 -12 18 -19 22 -16 5 3 20 -9 34 -27
37 -49 75 -82 94 -83 9 0 30 -14 45 -31 15 -17 39 -34 53 -37 14 -4 28 -13 31
-21 3 -7 20 -17 37 -20 17 -4 37 -14 44 -22 7 -9 20 -16 28 -16 9 0 43 -16 76
-36 34 -20 68 -37 77 -37 9 0 20 -5 23 -11 4 -5 15 -10 26 -10 10 0 24 -6 31
-14 7 -8 31 -18 54 -22 23 -3 45 -13 48 -22 4 -8 12 -15 20 -15 7 0 19 -8 26
-16 7 -9 26 -16 43 -16 16 0 35 -6 43 -14 23 -23 58 -38 87 -38 15 0 35 -5 45
-10 18 -9 38 -15 155 -43 59 -14 121 -23 166 -22 17 0 74 -11 128 -26 54 -14
107 -25 119 -25 13 0 23 -5 23 -11 0 -6 17 -11 39 -11 22 0 53 -7 69 -15 17
-9 46 -16 65 -16 20 0 38 -5 42 -11 3 -5 30 -8 58 -6 29 2 55 -1 58 -6 4 -5
14 -9 24 -8 9 1 20 1 23 -1 2 -1 17 -4 31 -5 46 -6 105 -31 105 -44 0 -9 17
-13 52 -13 28 0 55 -5 58 -11 4 -6 41 -10 84 -10 63 0 85 -5 123 -27 34 -20
60 -26 109 -26 35 0 67 3 71 7 4 4 32 6 62 5 71 -3 213 24 248 48 15 10 32 18
38 19 12 1 15 2 136 54 46 19 87 35 92 35 5 0 43 17 83 37 41 20 84 37 95 37
11 0 20 7 20 16 -1 12 5 15 16 11 9 -4 41 6 71 21 30 14 67 28 84 30 16 2 46
14 67 26 21 13 62 29 91 37 66 17 84 25 137 58 23 14 51 27 63 29 27 4 152 72
180 98 12 11 29 20 38 20 9 0 22 7 30 16 7 8 20 16 30 16 9 0 37 16 63 36 25
21 54 37 65 37 10 0 22 5 25 11 4 6 43 29 88 51 44 22 89 50 99 62 11 12 33
27 50 34 17 7 33 21 37 32 3 11 13 20 21 20 8 0 15 4 15 10 0 5 8 12 19 16 10
3 38 23 61 45 24 22 66 52 94 66 28 14 72 45 98 68 62 55 148 145 148 154 0 4
18 16 39 26 22 10 54 28 71 40 18 12 46 29 62 38 17 8 43 32 58 54 15 21 34
39 43 39 9 0 38 22 66 48 27 26 55 47 62 47 7 0 25 11 39 25 29 27 122 80 142
80 6 0 35 21 64 46 29 25 58 47 64 49 27 10 101 87 111 117 6 17 22 42 36 56
14 14 25 30 25 37 0 7 12 26 26 43 15 18 26 40 27 51 0 10 7 21 15 25 9 3 16
13 16 22 0 9 4 16 9 16 5 0 18 18 28 39 10 22 33 59 52 82 18 23 39 56 46 74
7 18 27 43 44 56 22 16 31 31 31 54 0 17 5 31 11 31 6 0 16 13 22 30 5 16 21
36 36 44 15 8 32 33 43 62 9 26 38 81 63 122 25 41 46 80 46 86 0 6 11 25 24
41 14 16 28 44 32 61 5 18 20 47 34 65 14 19 25 42 25 53 0 10 12 40 27 65 14
26 25 55 23 65 -1 11 15 37 38 60 30 31 43 56 50 93 5 28 22 67 39 87 29 37
38 52 91 158 16 32 35 65 43 74 8 9 19 32 26 50 6 18 18 33 25 33 8 0 20 18
26 40 17 55 33 88 55 113 10 12 30 49 43 81 13 33 35 72 47 87 13 14 23 33 23
42 1 8 5 16 11 16 6 0 11 12 11 28 0 16 7 43 15 59 9 17 16 36 16 44 0 7 7 26
15 42 8 15 18 56 22 90 4 34 11 62 16 62 4 0 11 15 15 34 4 19 15 51 24 71 9
20 23 72 31 116 21 113 30 156 49 214 9 28 17 80 17 116 0 37 6 72 14 85 17
23 49 141 49 179 0 14 5 25 11 25 5 0 10 11 10 24 0 13 6 33 14 45 8 11 17 60
21 109 4 48 11 93 17 99 6 6 11 26 11 44 0 18 7 51 17 73 9 22 13 51 10 65 -5
16 1 35 15 55 11 17 21 41 21 55 0 13 7 37 15 52 8 16 18 48 22 71 4 24 11 45
16 48 5 3 12 28 15 56 4 27 10 56 13 65 4 9 5 22 4 30 -1 7 2 19 7 26 6 7 13
24 16 39 3 14 11 45 18 68 6 23 13 63 16 89 16 141 64 319 90 328 6 2 6 15 -1
36 -8 22 -9 40 -2 53 5 10 13 52 18 92 4 41 12 83 19 95 6 11 10 27 9 35 -2 7
2 20 9 28 7 9 10 26 6 39 -3 14 1 38 10 54 8 17 18 71 21 121 8 116 21 164 54
208 15 19 22 35 17 35 -5 0 -4 3 2 8 6 4 16 19 24 34 8 14 35 39 60 54 32 20
47 36 47 51 0 12 15 37 33 54 33 30 62 74 62 94 0 6 25 35 57 66 32 31 58 61
58 67 0 5 13 24 29 41 16 17 42 54 58 83 15 28 33 58 39 67 5 9 19 38 31 65
12 27 31 52 42 56 13 4 25 22 32 46 5 21 25 53 43 70 17 17 39 47 48 68 8 20
26 58 40 84 13 25 27 58 31 71 4 13 23 41 43 62 19 21 33 42 31 46 -3 4 5 15
16 25 12 11 21 28 21 39 0 11 20 41 44 67 23 26 40 50 37 53 -4 4 -1 13 6 21
30 33 39 46 39 54 0 5 8 18 18 30 26 30 42 54 70 114 45 95 58 146 38 157 -19
12 -11 43 13 53 27 12 41 70 39 156 0 32 6 61 17 78 12 19 19 55 21 117 2 50
7 119 10 153 6 58 7 92 5 139 -3 42 26 255 34 255 4 0 8 38 8 83 0 46 5 87 11
90 5 4 10 35 10 70 0 34 5 72 11 84 7 12 14 50 16 85 2 35 9 69 15 75 15 15
13 41 -5 76 -9 17 -16 41 -16 54 0 13 -4 32 -9 42 -5 10 -15 37 -23 60 -7 23
-29 62 -48 86 -20 24 -35 49 -35 56 0 21 -126 137 -149 137 -14 0 -48 25 -86
63 -49 50 -71 64 -97 66 -19 1 -38 6 -42 10 -12 12 -46 9 -46 -4 0 -7 -10 -9
-23 -6 -54 14 -111 -35 -162 -141 -39 -83 -56 -114 -74 -137 -7 -8 -14 -41
-18 -75 -3 -37 -14 -72 -28 -92 -13 -18 -26 -51 -29 -74 -5 -37 -2 -46 25 -71
17 -15 37 -39 46 -52 13 -21 20 -23 43 -14 16 6 33 6 42 1 25 -16 51 -11 79
16 14 15 30 27 35 27 19 0 22 21 6 44 -23 33 -20 65 10 119 18 32 27 63 26 97
0 38 6 56 27 78 32 34 73 38 89 8 6 -11 24 -24 40 -28 46 -11 93 -54 118 -106
12 -27 35 -65 50 -84 24 -32 27 -45 26 -122 -1 -91 -19 -245 -34 -284 -7 -19
-8 -116 -1 -116 1 0 3 -28 5 -61 1 -40 -2 -64 -12 -72 -7 -6 -13 -30 -13 -52
0 -22 -6 -43 -12 -47 -8 -5 -10 -27 -6 -64 3 -33 1 -58 -5 -62 -6 -4 -8 -16
-6 -27 3 -11 1 -22 -4 -26 -7 -3 -6 -11 1 -20 7 -8 10 -28 6 -44 -3 -16 -8
-69 -11 -118 -10 -164 -17 -233 -27 -259 -6 -15 -10 -42 -10 -62 0 -19 -5 -38
-10 -41 -6 -4 -8 -13 -5 -20 7 -17 -60 -185 -91 -229 -14 -19 -37 -61 -52 -93
-16 -32 -48 -81 -72 -110 -24 -29 -47 -65 -50 -79 -4 -14 -19 -45 -33 -68 -15
-23 -48 -82 -73 -131 -26 -50 -51 -94 -56 -100 -5 -5 -9 -20 -9 -32 -1 -13 -9
-30 -19 -39 -10 -10 -27 -35 -38 -57 -11 -22 -23 -47 -29 -56 -5 -9 -18 -32
-29 -52 -11 -21 -35 -53 -53 -72 -18 -19 -34 -45 -36 -56 -1 -11 -16 -36 -31
-54 -82 -96 -124 -151 -136 -178 -7 -16 -16 -29 -21 -29 -4 0 -7 -5 -7 -11 0
-22 -81 -126 -98 -126 -5 0 -6 13 -3 29 3 16 9 62 12 103 9 107 12 135 15 147
2 6 5 22 6 37 10 82 19 126 27 126 5 0 9 15 9 35 0 19 4 38 8 42 4 5 8 28 9
52 2 52 10 89 24 105 10 13 32 120 39 196 9 97 36 240 56 304 12 36 22 77 22
90 0 13 11 39 24 59 19 28 22 41 15 58 -8 17 -4 34 19 72 26 44 29 60 31 156
1 58 5 113 8 122 4 9 9 48 11 87 3 39 9 76 15 84 19 23 30 115 24 202 -1 23 1
65 4 94 10 74 14 139 16 202 0 34 7 60 17 71 11 11 16 28 12 50 -2 18 -1 49 4
68 7 33 1 89 -22 203 -25 123 -31 167 -32 225 -1 35 -6 92 -12 126 -7 35 -11
103 -10 153 1 49 -6 136 -15 194 -9 59 -18 211 -21 346 -9 397 -11 451 -19
469 -4 9 -7 21 -5 26 1 5 -1 16 -4 25 -3 9 -12 68 -19 131 -23 216 -28 254
-35 266 -7 11 -22 119 -33 226 -3 27 -9 58 -14 68 -15 30 -25 88 -28 176 -2
47 -8 103 -14 126 -14 53 -29 136 -43 235 -7 43 -16 83 -20 89 -5 6 -10 28
-11 48 -1 42 -15 127 -33 207 -10 44 -10 59 0 71 18 22 33 20 25 -2 -4 -15 -3
-16 5 -4 9 13 12 10 18 -13 4 -16 15 -34 25 -41 23 -18 75 -88 75 -102 0 -6 4
-11 9 -11 6 0 13 -9 17 -21 3 -12 13 -21 21 -21 9 0 16 -5 16 -12 0 -6 9 -9
20 -6 24 6 31 -2 39 -43 7 -39 30 -73 56 -81 14 -4 20 -13 17 -22 -3 -8 -1
-14 4 -14 6 0 11 -7 11 -16 0 -17 40 -43 60 -39 7 2 13 -2 13 -8 0 -6 -6 -11
-13 -11 -7 -1 2 -14 21 -30 19 -16 34 -35 34 -42 0 -6 4 -12 9 -12 5 0 15 -14
23 -31 7 -18 18 -32 25 -32 24 0 153 -170 153 -202 0 -8 16 -30 35 -50 42 -46
101 -129 128 -183 12 -22 29 -43 39 -45 10 -3 19 -14 19 -26 0 -11 7 -22 15
-26 9 -3 13 -10 10 -15 -8 -13 15 -51 30 -51 15 0 43 -60 40 -83 -1 -8 4 -22
12 -31 8 -10 24 -36 35 -58 11 -23 29 -46 39 -53 10 -6 18 -22 18 -35 0 -12 5
-26 11 -29 19 -12 63 -113 63 -147 0 -23 6 -35 23 -42 14 -7 25 -22 27 -39 2
-15 10 -34 18 -41 9 -6 16 -19 16 -27 -1 -8 4 -22 9 -33 30 -60 36 -138 10
-138 -20 0 -8 -60 17 -82 39 -34 109 -190 117 -261 4 -34 10 -66 15 -72 4 -6
11 -44 15 -84 5 -41 13 -80 20 -89 6 -8 12 -43 13 -78 1 -35 5 -114 8 -174 3
-61 6 -198 5 -305 -1 -107 0 -225 1 -262 5 -132 -2 -468 -10 -468 -4 0 -13
-50 -22 -136 -12 -116 -14 -168 -5 -182 3 -6 2 -14 -4 -18 -6 -3 -11 -25 -11
-47 0 -22 -4 -43 -10 -47 -8 -5 -12 -66 -13 -189 0 -18 -4 -34 -8 -37 -7 -5
-26 -90 -42 -184 -4 -29 -16 -70 -25 -91 -10 -22 -18 -55 -18 -74 0 -19 -7
-46 -14 -60 -8 -14 -12 -32 -9 -39 2 -8 -1 -21 -8 -30 -7 -8 -11 -25 -7 -36 3
-12 1 -21 -4 -21 -5 0 -12 -17 -16 -37 -4 -21 -11 -40 -16 -43 -6 -3 -5 -15 1
-26 8 -14 8 -20 0 -20 -6 0 -10 -11 -10 -25 0 -13 -6 -29 -12 -35 -6 -7 -13
-33 -15 -58 -2 -25 -6 -53 -10 -63 -4 -10 -4 -23 -1 -29 4 -6 -1 -23 -11 -38
-10 -15 -19 -40 -20 -55 -1 -16 -9 -45 -18 -65 -9 -20 -22 -58 -29 -84 -7 -26
-19 -63 -27 -82 -8 -19 -15 -48 -15 -64 0 -17 -7 -33 -15 -36 -9 -3 -22 -29
-31 -56 -22 -73 -40 -122 -50 -142 -5 -11 -9 -32 -9 -48 0 -20 -3 -24 -9 -15
-7 11 -10 11 -16 -3 -4 -10 -4 -22 -1 -27 3 -5 -9 -35 -26 -67 -18 -33 -32
-70 -32 -84 0 -14 -4 -28 -9 -31 -5 -4 -22 -48 -38 -98 -45 -145 -57 -178
-117 -321 -31 -73 -56 -140 -56 -149 0 -8 -5 -18 -11 -21 -6 -4 -10 -13 -9
-19 1 -7 -1 -20 -4 -28 -4 -9 -14 -40 -24 -69 -10 -29 -25 -68 -33 -87 -9 -19
-19 -57 -24 -86 -4 -28 -15 -63 -25 -78 -10 -14 -18 -44 -18 -67 1 -22 -4 -44
-9 -50 -14 -13 -33 -92 -39 -157 -3 -30 -12 -56 -20 -61 -10 -5 -15 -26 -15
-59 0 -27 -10 -80 -21 -116 -12 -36 -21 -72 -21 -80 0 -8 -5 -14 -11 -14 -6 0
-10 -17 -10 -37 0 -20 -5 -39 -11 -42 -6 -4 -10 -23 -10 -44 0 -20 -7 -50 -15
-65 -23 -41 -48 -132 -48 -169 -1 -18 -10 -51 -21 -74 -14 -26 -17 -43 -10
-48 7 -4 6 -12 -3 -23 -8 -9 -17 -47 -20 -85 -6 -68 -37 -233 -49 -264 -3 -9
-7 -44 -8 -78 -1 -36 -7 -65 -14 -67 -15 -5 -16 -44 -1 -44 6 0 2 -14 -11 -31
-14 -20 -20 -40 -16 -55 3 -13 1 -60 -6 -103 -6 -43 -13 -95 -15 -115 -14
-132 -20 -222 -20 -266 1 -27 -3 -49 -8 -49 -4 0 -8 -14 -8 -30 0 -16 -5 -34
-10 -39 -8 -9 -13 -64 -26 -281 -2 -33 0 -60 6 -60 5 0 2 -13 -6 -29 -10 -19
-14 -58 -13 -113 1 -78 3 -83 22 -80 20 3 19 2 -4 -23 -23 -25 -25 -33 -19
-97 4 -39 12 -76 19 -84 18 -22 72 -19 80 3 4 10 13 23 21 27 21 13 17 81 -7
107 -15 16 -23 44 -28 98 -4 41 -11 76 -16 76 -5 0 -2 12 8 26 12 19 19 56 21
124 2 53 9 118 14 144 15 68 32 190 32 218 0 14 7 56 16 93 8 37 13 85 9 107
-3 21 0 52 7 70 12 32 21 109 23 196 1 30 5 47 12 43 6 -4 7 0 4 10 -4 9 -2
20 3 25 5 6 14 48 20 94 14 103 34 204 42 204 3 0 7 11 8 24 1 13 9 63 18 113
9 49 24 143 33 209 9 67 22 128 30 137 8 9 14 23 15 32 2 36 24 117 58 215 21
58 38 116 38 129 0 26 58 233 76 271 6 13 8 29 6 37 -3 8 4 30 14 49 11 19 19
45 20 58 0 13 4 28 9 34 9 9 20 69 25 136 1 17 8 36 14 42 7 6 25 48 40 94 15
46 32 94 37 105 4 12 19 54 32 95 13 40 30 83 37 95 8 13 21 50 30 84 9 34 25
70 36 79 11 9 20 28 20 43 0 33 31 127 56 171 10 17 24 52 31 77 6 25 23 66
36 91 14 26 28 70 32 98 6 42 12 54 34 64 26 12 26 12 21 -28 -3 -21 -14 -68
-26 -102 -12 -35 -27 -103 -34 -152 -7 -50 -19 -105 -27 -123 -7 -19 -11 -43
-8 -55 3 -12 1 -28 -4 -35 -9 -11 -22 -91 -30 -189 -1 -16 -3 -30 -4 -32 -2
-1 -10 -52 -18 -112 -8 -61 -17 -123 -19 -137 -2 -14 -6 -60 -9 -102 -3 -41
-11 -85 -17 -97 -7 -12 -10 -21 -7 -21 2 0 -2 -25 -10 -55 -13 -49 -12 -55 4
-67 16 -12 16 -14 1 -20 -23 -9 -35 -93 -45 -313 -1 -16 -5 -28 -9 -28 -4 0
-7 -31 -7 -68 1 -38 -2 -73 -5 -78 -8 -12 -20 -323 -21 -534 -1 -83 -5 -150
-10 -150 -5 0 -5 -11 -1 -24 9 -27 13 -103 7 -116 -4 -8 -7 -63 -17 -345 -1
-39 -6 -74 -10 -79 -28 -28 -59 13 -59 79 0 25 -5 55 -11 66 -6 11 -21 73 -32
138 -16 86 -27 123 -42 136 -14 12 -20 30 -20 59 0 24 -10 59 -22 79 -14 25
-19 45 -15 64 6 20 3 27 -9 27 -13 0 -15 -15 -11 -92 5 -117 9 -152 24 -223 6
-32 13 -77 16 -101 2 -24 9 -53 15 -65 7 -12 12 -31 12 -42 0 -35 35 -130 49
-136 11 -4 12 -8 2 -20 -9 -11 -8 -19 4 -33 9 -10 24 -35 34 -57 17 -37 22
-39 64 -39 38 0 49 4 63 26 27 41 47 163 50 307 1 30 5 55 9 55 10 0 18 142
24 436 3 144 8 299 11 344 3 51 1 81 -5 81 -7 0 -8 7 -2 18 15 27 37 189 29
209 -4 9 -3 22 2 29 5 6 13 52 17 101 7 99 21 220 38 331 7 40 13 95 15 121 1
25 5 54 9 63 9 24 36 185 49 288 12 99 36 235 54 303 6 22 9 63 8 89 -2 33 1
48 10 47 6 -2 13 9 13 23 3 52 7 85 14 111 5 14 12 47 17 73 6 26 12 57 15 68
3 12 8 44 12 71 4 28 11 53 16 56 5 3 9 24 9 46 0 22 9 61 21 86 11 25 21 59
21 76 0 17 4 47 10 68 5 21 16 81 23 133 7 52 20 105 28 118 18 28 32 89 40
164 3 29 12 65 20 81 9 16 16 44 16 61 0 17 5 34 11 38 6 4 8 19 5 32 -4 14 0
39 8 54 9 16 18 58 22 92 7 68 23 136 39 165 5 11 9 35 9 56 0 20 4 37 9 37 5
0 15 34 23 76 7 41 17 81 22 88 5 6 7 19 3 28 -3 8 1 27 11 41 9 15 16 40 14
56 -1 17 5 42 12 57 21 37 53 167 53 212 0 21 4 41 9 45 5 3 13 28 17 55 4 28
11 55 16 61 5 6 13 46 19 89 6 43 23 138 38 210 15 74 24 146 21 164 -4 18 -1
44 6 57 7 13 14 67 16 121 2 55 8 124 14 154 6 30 14 93 17 138 4 46 11 92 16
102 6 10 11 56 11 102 0 47 2 92 6 101 8 21 57 22 57 1 0 -9 3 -16 8 -16 10 0
33 -62 34 -90 0 -20 0 -20 16 0 15 20 15 20 16 -5 1 -14 1 -29 0 -33 0 -5 4
-32 10 -61 8 -35 17 -52 28 -52 11 0 14 -7 9 -26 -3 -14 -1 -29 4 -32 6 -4 11
-18 11 -32 0 -14 5 -26 11 -26 5 0 9 -4 8 -8 -3 -14 15 -71 28 -86 14 -18 29
-85 28 -126 0 -15 9 -51 20 -82 11 -30 17 -61 14 -69 -3 -9 0 -18 6 -22 6 -4
11 -19 11 -33 0 -14 5 -25 10 -25 6 -1 8 -7 5 -15 -3 -8 3 -35 14 -60 21 -47
41 -135 52 -219 3 -26 10 -53 16 -60 5 -7 7 -18 3 -23 -3 -6 -2 -30 4 -53 6
-26 5 -61 -1 -91 -7 -31 -7 -52 -1 -56 20 -13 19 -412 -2 -486 -7 -28 -16
-183 -14 -271 2 -141 1 -151 -35 -270 -5 -18 -11 -49 -13 -69 -2 -20 -6 -41
-10 -47 -4 -6 -1 -13 6 -16 10 -3 11 -10 1 -29 -7 -14 -16 -49 -20 -78 -16
-116 -22 -148 -33 -168 -19 -36 -36 -99 -30 -110 4 -5 2 -12 -3 -15 -5 -3 -12
-31 -16 -62 -3 -32 -19 -85 -34 -119 -33 -74 -56 -155 -56 -199 0 -17 -8 -42
-16 -54 -9 -12 -19 -45 -23 -73 -3 -28 -12 -58 -19 -66 -8 -9 -17 -40 -21 -69
-4 -29 -13 -66 -21 -84 -8 -17 -17 -41 -22 -52 -12 -33 -37 -162 -43 -221 -3
-29 -10 -57 -15 -63 -5 -7 -10 -42 -11 -79 -2 -67 -13 -99 -31 -88 -5 3 -9 20
-10 37 0 18 -5 41 -11 53 -6 11 -11 54 -11 94 0 61 -3 76 -22 94 -12 11 -26
21 -31 21 -12 0 -31 -42 -24 -53 3 -6 8 -40 10 -76 3 -36 8 -78 12 -92 4 -14
8 -43 9 -63 1 -20 5 -67 10 -105 4 -38 9 -90 12 -115 9 -97 18 -137 29 -145
18 -11 60 -15 88 -8 22 5 24 12 24 71 1 36 7 95 15 132 8 36 10 68 5 71 -4 2
-1 18 7 34 8 15 15 38 15 51 0 12 7 39 16 59 12 31 35 142 41 207 1 9 8 34 15
56 8 21 11 46 8 54 -3 8 2 20 10 27 8 7 15 20 15 29 0 20 15 69 50 162 15 39
24 74 20 78 -3 3 -1 16 6 29 6 12 18 48 25 80 22 97 32 130 43 152 6 11 17 49
24 84 7 34 20 72 28 83 7 12 14 32 14 44 0 13 4 26 9 30 5 3 12 18 16 34 3 16
12 60 21 98 8 37 22 102 32 145 9 42 21 84 26 94 5 10 13 58 17 107 4 49 12
95 18 102 5 7 12 50 13 95 2 44 8 112 14 150 12 77 19 132 28 231 4 37 9 87
13 110 10 73 6 399 -7 538 -7 73 -24 179 -39 234 -14 54 -31 123 -37 152 -6
29 -15 60 -20 70 -5 11 -9 28 -9 39 0 11 -10 42 -21 69 -12 27 -22 62 -22 77
0 16 -12 73 -27 128 -14 55 -33 123 -40 152 -7 30 -21 67 -29 84 -9 18 -19 50
-23 72 -4 22 -14 42 -21 45 -8 3 -17 26 -21 52 -3 26 -18 68 -33 94 -14 26
-26 55 -26 64 0 9 -9 28 -21 43 -12 15 -21 32 -21 39 0 34 -35 124 -58 149
-14 15 -23 31 -20 36 2 5 -5 25 -18 46 -21 36 -21 43 -10 145 7 59 15 138 18
176 3 38 12 118 20 178 9 60 16 136 16 169 0 63 15 89 45 77 9 -3 20 -15 23
-26 4 -11 13 -20 21 -20 9 0 16 -5 16 -12 0 -6 6 -9 15 -5 8 3 18 1 22 -4 3
-6 0 -11 -8 -11 -8 -1 -1 -6 15 -12 16 -6 29 -17 29 -26 0 -8 8 -14 18 -13 36
3 47 -1 41 -17 -3 -9 0 -14 7 -13 7 2 14 -8 16 -21 2 -15 18 -32 42 -44 21
-11 55 -37 74 -58 20 -20 41 -37 47 -37 14 0 128 -120 151 -159 10 -17 23 -30
29 -30 6 0 20 -19 30 -41 11 -22 31 -46 44 -52 14 -6 33 -27 43 -46 9 -19 31
-51 47 -73 17 -21 31 -41 31 -46 0 -4 19 -29 42 -56 52 -58 56 -64 72 -93 6
-12 21 -25 32 -29 14 -4 22 -16 22 -32 0 -33 53 -130 72 -130 10 0 12 -10 9
-32 -3 -19 1 -37 10 -43 7 -7 14 -16 14 -21 0 -4 5 -21 12 -38 6 -16 11 -34
10 -40 -1 -7 8 -22 20 -35 16 -17 23 -40 25 -83 2 -33 11 -105 21 -160 10 -55
20 -123 23 -152 6 -78 7 -455 1 -509 -3 -26 0 -54 5 -61 8 -9 8 -13 0 -13 -10
0 -12 -17 -14 -125 0 -34 -3 -42 -11 -32 -7 11 -9 7 -5 -15 2 -17 0 -64 -5
-105 -5 -41 -12 -103 -15 -138 -3 -34 -8 -86 -10 -115 -3 -29 -7 -83 -10 -120
-2 -37 -9 -72 -15 -78 -15 -15 -15 -67 1 -72 9 -3 5 -16 -10 -42 -19 -30 -22
-46 -17 -86 5 -36 3 -49 -6 -49 -10 0 -12 -12 -8 -44 4 -32 2 -50 -10 -62 -9
-10 -18 -37 -22 -61 -3 -23 -9 -43 -14 -42 -5 0 -9 -29 -9 -63 0 -35 -5 -63
-11 -63 -6 0 -10 -17 -10 -37 0 -20 4 -37 10 -37 16 0 12 -16 -10 -42 -14 -15
-19 -32 -15 -47 3 -14 -1 -30 -9 -38 -9 -9 -18 -29 -21 -47 -3 -17 -13 -61
-23 -97 -10 -37 -16 -73 -13 -81 3 -7 -3 -16 -13 -18 -10 -3 -27 -23 -37 -46
-21 -44 -96 -118 -122 -119 -9 0 -24 15 -35 35 -21 38 -45 41 -83 8 -18 -16
-18 -17 2 -24 14 -5 19 -14 15 -28 -9 -33 14 -63 70 -91 76 -39 96 -37 205 24
47 26 54 35 74 91 12 35 27 92 35 126 8 35 20 76 28 92 8 15 15 39 15 52 0 13
7 38 16 55 9 18 15 40 12 50 -3 10 1 23 8 29 7 6 14 33 15 60 1 28 6 54 11 60
6 5 7 16 4 24 -6 16 15 134 29 161 4 9 11 34 14 57 4 23 11 46 16 52 5 7 11
57 14 112 4 55 14 118 23 140 9 22 16 55 16 73 -1 53 3 75 14 82 5 3 9 41 9
84 0 42 3 81 6 87 7 11 9 27 18 148 11 144 19 199 29 211 5 7 8 33 7 59 -1 25
1 51 5 58 11 17 16 736 6 774 -5 18 -12 47 -14 64 -16 108 -43 202 -81 283
-11 23 -20 48 -20 55 1 24 -100 240 -125 269 -9 10 -15 22 -14 26 2 4 -15 28
-36 53 -22 26 -49 62 -61 81 -11 18 -77 93 -146 166 -69 73 -131 145 -138 161
-7 16 -40 57 -74 92 -100 101 -305 278 -322 278 -9 0 -26 13 -37 29 -12 16
-35 36 -51 45 -16 8 -34 21 -38 28 -5 8 -15 14 -23 14 -8 0 -27 15 -43 34 -16
18 -42 42 -58 51 l-29 18 5 161 c3 88 7 177 9 198 2 20 4 40 5 44 0 4 5 8 11
8 6 0 11 -14 11 -31 -1 -21 6 -33 19 -37 23 -7 59 -84 69 -149 7 -42 28 -68
77 -95 52 -30 103 -1 124 70 10 34 8 41 -24 83 -19 25 -34 51 -34 59 0 8 -12
39 -27 70 -18 39 -26 75 -26 116 0 49 -4 62 -21 72 -12 6 -21 21 -21 35 0 14
-6 28 -14 31 -8 3 -20 28 -27 56 -12 47 -38 112 -85 206 -28 54 -45 159 -36
211 9 47 7 235 -2 250 -3 5 -7 61 -10 125 -3 64 -10 126 -15 136 -6 11 -11 47
-11 80 -1 34 -5 78 -10 98 -5 20 -12 84 -16 142 -4 58 -9 107 -11 111 -9 15
-36 166 -36 204 0 24 -5 48 -11 54 -6 6 -16 37 -21 68 -5 31 -14 80 -21 109
-6 29 -15 76 -19 105 -10 60 -57 222 -79 271 -9 18 -19 50 -23 70 -7 35 -19
63 -66 152 -12 23 -22 55 -22 72 0 34 -60 165 -82 178 -7 5 -13 22 -13 40 0
17 -5 31 -11 31 -6 0 -41 63 -79 140 -38 78 -85 158 -107 182 -22 24 -46 61
-54 83 -8 23 -25 50 -37 62 -12 11 -30 35 -38 52 -8 17 -42 58 -74 90 -32 33
-73 80 -91 106 -27 39 -102 114 -113 114 -5 0 -119 108 -199 186 -30 31 -63
56 -72 56 -10 0 -17 3 -17 8 -1 12 -75 86 -88 86 -5 0 -30 19 -55 42 -26 23
-51 42 -58 42 -6 0 -31 17 -55 37 -23 20 -57 41 -75 46 -17 5 -25 10 -16 11
18 1 -38 32 -58 32 -7 0 -19 7 -26 16 -15 18 -101 58 -128 60 -10 1 -21 8 -24
15 -3 8 -14 14 -26 14 -12 0 -21 4 -21 8 0 4 -18 16 -40 26 -22 11 -58 30 -81
44 -23 15 -53 26 -65 27 -13 0 -26 5 -30 11 -3 5 -14 10 -24 10 -10 0 -50 17
-90 38 -39 21 -74 35 -77 31 -4 -3 -22 6 -42 21 -19 15 -39 24 -44 21 -5 -4
-16 0 -24 7 -16 15 -98 51 -161 71 -23 7 -57 25 -76 39 -24 18 -45 25 -71 22
-20 -1 -42 3 -49 10 -7 7 -17 13 -23 13 -16 0 -111 44 -206 95 -31 17 -63 31
-69 31 -7 0 -31 9 -53 19 -116 55 -138 65 -175 71 -22 4 -56 18 -77 32 -20 14
-41 25 -47 25 -6 0 -18 7 -27 16 -8 8 -37 21 -62 27 -26 7 -46 16 -46 21 0 5
-12 10 -25 10 -14 0 -31 6 -38 14 -6 8 -28 18 -48 22 -20 3 -36 11 -36 16 0 6
-9 11 -20 11 -11 0 -26 7 -33 15 -7 9 -24 16 -38 16 -14 0 -28 7 -32 16 -3 9
-19 16 -36 16 -17 0 -42 7 -56 16 -14 9 -37 17 -51 19 -14 1 -43 13 -65 26
-39 23 -112 46 -200 65 -23 4 -63 15 -89 24 -26 9 -61 16 -79 17 -125 4 -225
0 -320 -14 -131 -20 -348 -40 -354 -34 -2 2 -20 0 -40 -4 -20 -5 -39 -4 -42 1
-4 5 -17 7 -30 4 -20 -5 -27 0 -37 25 -8 18 -25 39 -39 48 -14 10 -25 28 -26
40 0 13 -3 18 -6 11 -7 -18 -79 -5 -100 19 -9 11 -21 20 -27 20 -5 0 -23 14
-39 32 -17 17 -37 31 -45 31 -7 0 -20 5 -27 11 -51 43 -67 53 -114 68 -28 10
-55 15 -58 11 -4 -3 -14 1 -23 9 -27 24 -159 91 -168 85 -5 -3 -17 4 -27 15
-10 11 -24 18 -31 15 -15 -6 -48 22 -48 39 0 6 -9 8 -21 4 -13 -4 -31 1 -49
15 -15 12 -39 22 -54 22 -15 0 -37 10 -50 22 -17 15 -43 24 -90 28 -37 3 -76
12 -88 19 -11 7 -43 16 -70 20 -27 3 -62 16 -77 28 -23 19 -37 21 -90 17 -34
-3 -65 -2 -68 3 -3 5 -25 15 -50 21 -24 6 -60 19 -80 29 -38 17 -92 24 -111
13 -9 -5 -115 -12 -187 -12 -17 0 -39 -4 -49 -9 -12 -7 -25 -5 -38 3 -11 8
-39 12 -62 11 -23 -2 -52 2 -65 8 -16 8 -32 8 -54 1 -25 -9 -34 -8 -44 4 -17
19 -41 19 -49 -2 -4 -11 -14 -15 -30 -11 -13 4 -37 0 -54 -9 -16 -8 -37 -17
-47 -20 -10 -3 -16 -12 -13 -20 4 -11 -6 -14 -45 -11 -30 1 -56 -3 -66 -11
-11 -10 -33 -12 -77 -7 -33 4 -63 3 -66 -2 -3 -4 -15 -8 -27 -8 -23 0 -56 -32
-66 -62 -4 -12 -20 -18 -55 -19 l-50 -3 -29 92 c-16 50 -29 101 -29 112 0 23
-40 90 -54 90 -9 0 -35 51 -32 64 2 12 -112 125 -125 125 -8 0 -24 10 -37 22
-25 24 -47 38 -109 69 -20 11 -39 22 -42 26 -12 14 -69 37 -81 33 -8 -3 -13
-1 -13 5 0 20 -323 51 -345 33z m134 -142 c2 -2 10 2 18 8 11 9 21 9 41 -2 20
-11 34 -11 57 -3 26 10 30 9 35 -8 3 -12 15 -21 30 -21 13 -1 43 -3 66 -4 32
-1 51 -10 78 -36 27 -25 43 -32 60 -28 19 5 24 1 27 -17 2 -13 14 -29 27 -36
32 -15 76 -57 76 -71 0 -7 21 -34 46 -62 37 -41 50 -65 69 -138 13 -49 21 -96
18 -105 -4 -11 -20 -16 -48 -16 -23 0 -43 -4 -45 -8 -2 -5 -25 -16 -51 -25
-35 -13 -54 -15 -67 -7 -15 8 -22 7 -29 -6 -5 -10 -29 -21 -53 -24 -23 -4 -50
-15 -60 -24 -9 -9 -31 -18 -48 -20 -17 -2 -35 -10 -40 -19 -4 -8 -16 -14 -26
-14 -10 0 -39 -22 -65 -48 -26 -26 -54 -47 -64 -47 -10 0 -38 -17 -62 -37 -24
-20 -52 -36 -62 -36 -20 0 -85 -56 -85 -74 0 -6 -31 -25 -68 -42 -38 -17 -68
-35 -68 -41 0 -6 -23 -22 -50 -35 -38 -19 -55 -36 -72 -70 -12 -25 -28 -51
-37 -58 -8 -6 -20 -21 -26 -32 -7 -12 -21 -23 -32 -24 -11 -2 -27 -7 -35 -10
-9 -4 -92 -8 -184 -9 -93 -1 -188 -6 -212 -12 -27 -6 -67 -7 -100 -2 -34 6
-59 5 -65 -1 -6 -6 -26 -10 -45 -10 -19 0 -35 -5 -35 -10 0 -5 -22 -12 -50
-17 -27 -4 -54 -10 -60 -14 -20 -13 -84 -33 -106 -33 -12 0 -31 -7 -42 -15
-11 -9 -36 -16 -55 -16 -20 0 -37 -7 -40 -16 -4 -9 -14 -16 -24 -16 -44 0
-179 -63 -179 -83 0 -5 -12 -9 -26 -9 -29 0 -123 -44 -135 -63 -5 -7 -27 -22
-49 -34 -22 -11 -43 -27 -46 -36 -4 -9 -14 -16 -23 -16 -9 0 -31 -8 -49 -17
-32 -17 -32 -17 -26 8 4 13 7 35 7 48 0 15 9 27 24 33 28 11 176 167 176 187
0 7 3 13 7 12 22 -3 34 4 40 24 4 13 58 73 119 135 62 61 161 164 222 229 61
64 115 117 122 117 6 0 17 12 23 27 7 14 17 26 23 26 6 0 11 7 11 16 0 9 9 16
21 16 12 0 21 7 21 18 0 10 17 30 37 45 20 14 53 42 73 61 20 19 37 32 37 29
0 -3 41 36 92 88 52 52 98 95 103 95 18 0 141 123 141 140 0 9 5 17 11 17 6 0
8 -4 5 -9 -3 -5 11 -3 31 3 20 6 37 15 37 19 0 4 6 8 14 8 9 0 36 16 61 35 25
19 70 48 101 65 31 16 67 40 80 52 13 12 30 23 37 24 7 2 23 13 35 24 19 18
21 23 7 31 -12 8 -12 12 -2 23 11 10 17 8 30 -11 20 -28 54 -27 109 3 22 12
54 19 79 18 23 -1 51 5 63 13 18 13 83 13 99 0z m1818 -596 c69 1 129 5 133 8
3 4 15 -1 25 -10 12 -12 30 -16 52 -13 26 4 45 -2 79 -25 25 -17 48 -35 52
-41 4 -7 14 -4 25 6 18 16 24 15 83 -5 35 -11 68 -20 72 -19 9 2 54 -16 98
-40 21 -10 31 -11 40 -1 9 9 20 9 47 -1 19 -7 49 -12 67 -12 18 0 34 -5 36
-11 2 -5 15 -12 29 -14 15 -2 28 -9 30 -16 2 -7 13 -12 23 -12 11 0 22 -7 25
-16 4 -8 14 -15 23 -15 9 0 28 -8 42 -17 14 -9 30 -14 36 -10 6 4 11 1 11 -5
0 -12 66 -44 87 -41 27 3 39 -2 60 -25 12 -12 28 -23 35 -24 36 -1 105 -32
110 -49 2 -10 11 -18 19 -18 8 0 15 -8 15 -16 0 -15 11 -20 38 -17 7 1 15 -3
19 -9 4 -6 16 -11 27 -11 23 0 26 -13 10 -43 -11 -19 -23 -20 -150 -20 -208 1
-485 -11 -489 -22 -2 -5 -21 -10 -42 -10 -21 0 -67 -6 -101 -14 -35 -8 -86
-15 -115 -16 -55 -1 -129 -29 -152 -57 -8 -10 -29 -17 -49 -17 -22 0 -39 -7
-45 -18 -8 -14 -13 -16 -25 -6 -17 14 -112 8 -128 -8 -5 -6 -29 -11 -53 -11
-23 0 -63 -7 -89 -16 -25 -9 -63 -18 -84 -21 -69 -8 -142 -28 -159 -42 -9 -8
-21 -15 -26 -15 -5 0 -19 -9 -30 -21 -12 -12 -33 -30 -46 -40 -44 -33 -49
-149 -8 -149 9 0 17 -7 17 -16 0 -8 4 -15 10 -15 19 0 11 -49 -12 -70 -30 -27
-40 -58 -24 -75 29 -29 44 -9 86 114 12 32 32 70 47 84 58 57 79 73 98 77 11
2 36 12 55 22 19 10 44 15 55 12 11 -2 25 2 33 11 7 8 21 13 31 10 11 -3 22
-1 25 4 3 4 15 6 26 2 12 -3 44 1 71 9 27 8 56 13 64 11 7 -1 19 2 27 8 7 6
42 9 80 6 112 -8 131 -12 131 -24 0 -6 8 -21 18 -33 10 -12 19 -27 19 -33 0
-19 136 -147 154 -145 42 4 71 -1 57 -10 -11 -7 -10 -11 4 -16 26 -10 31 0 17
31 -10 21 -18 26 -35 22 -15 -4 -28 2 -42 20 -11 14 -27 26 -35 26 -8 0 -25
23 -38 52 -12 29 -26 53 -31 53 -5 0 -9 15 -9 34 0 44 21 56 115 65 38 3 97
11 131 16 35 6 77 13 95 15 17 3 48 9 68 14 20 5 57 8 81 6 25 -1 47 2 51 8 3
5 17 10 31 10 14 0 26 5 26 11 0 8 18 10 57 5 42 -5 65 -3 88 9 21 10 72 17
156 20 68 3 143 8 167 12 47 8 45 10 164 -99 35 -32 69 -60 75 -63 7 -2 25
-17 42 -34 16 -16 44 -36 63 -45 31 -15 81 -76 81 -100 0 -6 13 -10 30 -10 25
0 36 -10 65 -57 25 -39 40 -54 53 -51 11 3 37 -17 73 -54 31 -33 61 -58 66
-56 11 4 70 -57 70 -73 0 -5 21 -27 47 -49 26 -22 47 -44 47 -50 0 -16 30 -43
40 -37 11 7 59 -43 69 -71 4 -11 13 -17 22 -13 9 3 28 -6 44 -20 15 -14 25
-26 22 -26 -3 0 14 -19 37 -42 31 -32 45 -39 51 -29 7 10 9 10 10 -2 1 -9 1
-20 0 -24 0 -4 4 -8 11 -8 12 0 49 -43 67 -78 6 -12 19 -20 29 -19 10 2 21 -5
25 -15 11 -30 100 -125 114 -121 7 1 35 -21 63 -50 28 -29 54 -50 59 -47 4 3
10 -4 14 -15 7 -24 128 -127 148 -127 17 0 99 -79 99 -95 0 -6 7 -14 16 -17 8
-4 16 -13 16 -21 0 -18 81 -103 107 -112 10 -4 19 -13 19 -20 0 -8 26 -42 57
-77 32 -34 58 -66 58 -71 0 -10 17 -32 45 -58 10 -9 18 -22 18 -29 0 -17 38
-58 45 -50 4 3 12 -7 18 -23 6 -16 21 -38 32 -47 11 -10 21 -24 21 -30 0 -21
32 -64 48 -64 8 0 21 -16 29 -36 8 -19 20 -39 26 -43 7 -4 12 -16 12 -26 0
-11 6 -26 13 -34 25 -27 61 -82 71 -107 7 -19 5 -29 -6 -38 -18 -15 -20 -48
-4 -58 6 -4 9 -14 5 -23 -3 -9 0 -24 8 -33 18 -21 130 -280 138 -319 10 -46
-20 -49 -64 -7 -20 20 -41 45 -46 57 -16 35 -35 62 -55 76 -10 8 -18 21 -18
29 0 8 -9 17 -21 21 -12 3 -21 13 -21 21 0 8 -18 33 -39 56 -22 22 -54 58 -71
78 -18 21 -45 53 -61 70 -16 18 -28 36 -28 40 0 4 -20 29 -44 55 -25 26 -45
52 -45 58 0 6 -7 18 -14 26 -8 9 -25 31 -38 50 -13 18 -52 64 -86 100 -34 37
-76 86 -92 110 -17 24 -58 72 -92 106 -34 34 -62 69 -62 77 0 7 -12 27 -26 44
-15 17 -26 35 -26 40 0 10 -38 54 -113 133 -31 32 -55 63 -55 70 0 6 -12 22
-25 35 -14 13 -50 57 -82 98 -31 41 -69 88 -85 104 -16 15 -29 32 -29 37 0 9
-34 46 -118 130 -22 21 -39 44 -39 50 0 5 -22 30 -48 54 -26 24 -47 48 -47 53
0 12 -66 86 -131 146 -29 27 -87 83 -128 124 -57 57 -85 78 -114 83 -21 4 -41
14 -44 22 -8 21 -129 20 -129 -1 0 -9 -8 -20 -17 -25 -24 -13 -30 -79 -10
-100 10 -10 17 -34 17 -63 0 -47 20 -78 41 -65 15 9 14 -1 -2 -26 -16 -25 -2
-42 35 -45 36 -2 42 -16 34 -84 -6 -56 -5 -60 16 -60 26 0 45 30 33 52 -5 9
-17 47 -26 85 -10 37 -22 73 -27 78 -5 6 -10 30 -12 53 -3 37 0 42 21 45 18 3
34 -7 58 -35 18 -22 41 -46 51 -55 9 -8 37 -33 61 -56 25 -23 46 -41 48 -41
13 0 47 -46 43 -58 -3 -8 14 -25 42 -43 31 -20 49 -40 53 -57 3 -16 15 -34 27
-43 12 -8 29 -23 38 -33 9 -10 21 -18 28 -18 6 0 29 -28 52 -63 22 -35 49 -66
59 -69 11 -3 20 -12 20 -19 0 -17 27 -54 80 -105 24 -24 49 -54 55 -67 7 -13
22 -23 33 -23 11 0 21 -4 22 -8 1 -5 2 -19 4 -33 3 -29 36 -76 64 -91 26 -13
78 -66 78 -79 0 -5 5 -10 11 -10 6 0 8 -5 4 -11 -7 -12 26 -59 84 -119 20 -21
37 -43 37 -48 0 -6 21 -28 47 -49 26 -22 48 -45 48 -51 0 -12 40 -41 57 -42 5
0 14 -18 19 -40 5 -21 14 -39 19 -39 5 0 10 -6 10 -14 0 -7 14 -24 31 -37 17
-13 32 -30 32 -38 0 -8 9 -20 21 -26 11 -7 21 -19 21 -27 0 -9 6 -19 14 -22
12 -4 28 -38 27 -55 -1 -2 9 -12 21 -22 12 -10 22 -23 22 -29 0 -13 113 -122
144 -138 13 -7 27 -27 30 -43 4 -17 20 -43 37 -59 16 -16 30 -40 30 -53 0 -14
13 -32 32 -46 17 -12 31 -29 31 -36 0 -8 15 -20 32 -26 18 -6 30 -16 26 -22
-4 -6 -1 -10 5 -10 15 0 42 -27 42 -41 0 -5 12 -17 26 -27 15 -9 27 -27 27
-40 0 -25 58 -92 80 -92 8 0 14 -8 14 -19 0 -26 60 -89 79 -82 10 4 16 -1 16
-14 0 -26 21 -74 32 -74 5 0 14 -20 20 -45 14 -50 34 -71 63 -63 15 4 21 0 21
-12 0 -9 7 -16 15 -16 8 0 22 -12 31 -27 10 -14 27 -26 38 -26 16 0 21 -7 21
-27 0 -15 5 -24 11 -20 5 3 10 -3 10 -14 0 -11 12 -25 27 -32 15 -7 33 -28 42
-48 8 -20 23 -39 33 -42 18 -6 26 -17 60 -87 9 -18 21 -36 27 -40 6 -3 8 -11
5 -16 -9 -14 15 -94 28 -94 7 0 8 -15 4 -41 -6 -34 -3 -45 15 -63 13 -13 22
-36 22 -56 0 -19 7 -56 16 -81 31 -87 57 -194 57 -237 0 -23 7 -68 16 -99 8
-32 15 -72 15 -88 0 -17 7 -45 15 -63 8 -18 17 -62 20 -96 3 -35 13 -77 22
-94 9 -17 13 -35 10 -41 -13 -20 -3 -90 16 -124 28 -48 33 -78 37 -222 2 -67
9 -129 14 -136 6 -7 11 -29 11 -47 1 -19 6 -50 12 -69 28 -92 31 -115 19 -135
-9 -14 -9 -25 -1 -38 6 -10 12 -51 13 -91 1 -40 7 -79 14 -87 6 -8 12 -77 15
-163 2 -82 6 -254 9 -381 3 -127 10 -283 16 -346 6 -64 11 -130 11 -147 0 -17
5 -34 10 -37 6 -4 13 -37 16 -74 13 -189 18 -275 19 -353 1 -47 5 -89 10 -94
4 -4 8 -35 8 -69 0 -33 4 -61 9 -61 11 0 4 -67 -10 -100 -19 -43 -27 -119 -25
-238 1 -76 -5 -147 -14 -189 -9 -36 -15 -86 -15 -110 1 -24 -6 -78 -15 -121
-8 -42 -17 -84 -19 -92 -11 -58 -20 -84 -29 -84 -5 0 -4 -10 2 -21 7 -14 7
-22 -1 -27 -8 -6 -8 -10 2 -16 17 -11 -23 -142 -56 -184 -15 -20 -23 -44 -23
-79 0 -29 -4 -51 -9 -51 -4 0 -7 -22 -7 -48 -1 -26 -8 -65 -16 -85 -9 -21 -21
-81 -28 -134 -6 -52 -15 -100 -20 -106 -4 -6 -13 -46 -19 -90 -6 -43 -21 -101
-33 -128 -19 -43 -20 -54 -9 -95 7 -27 9 -54 4 -66 -5 -11 -10 -57 -12 -102
-2 -46 -7 -88 -12 -95 -20 -27 -44 -134 -50 -227 -13 -188 -23 -219 -61 -204
-11 4 -17 1 -17 -9 0 -8 -8 -30 -17 -48 -12 -24 -14 -42 -7 -67 6 -21 6 -71 0
-124 -8 -74 -6 -95 8 -127 17 -37 17 -45 -9 -179 -15 -77 -29 -167 -32 -200
-3 -33 -12 -71 -21 -84 -10 -13 -17 -31 -17 -40 0 -9 -10 -34 -22 -56 -12 -23
-19 -47 -16 -55 3 -8 1 -39 -5 -70 -16 -82 -21 -122 -25 -193 -5 -93 -17 -162
-33 -202 -8 -20 -14 -43 -14 -51 0 -9 -7 -30 -15 -49 -8 -18 -20 -61 -27 -96
-8 -34 -25 -99 -38 -144 -14 -44 -27 -89 -28 -99 -2 -11 -6 -24 -10 -30 -3 -6
-9 -46 -13 -89 -4 -43 -11 -83 -16 -89 -5 -6 -14 -44 -21 -84 -15 -86 -31
-141 -49 -163 -15 -20 -24 -62 -30 -144 -2 -36 -12 -88 -21 -115 -10 -28 -21
-79 -26 -114 -5 -34 -12 -72 -15 -84 -3 -11 -13 -47 -21 -78 -20 -74 -41 -131
-55 -149 -6 -8 -15 -37 -18 -64 -4 -27 -11 -58 -16 -68 -6 -10 -15 -56 -22
-102 -6 -46 -18 -91 -26 -100 -7 -9 -17 -38 -20 -65 -3 -27 -18 -67 -33 -88
-15 -22 -26 -50 -26 -63 0 -13 -8 -29 -16 -36 -9 -7 -24 -40 -34 -73 -10 -32
-27 -65 -37 -72 -10 -8 -18 -20 -18 -28 -1 -8 -16 -37 -35 -65 -19 -28 -51
-84 -71 -125 -20 -40 -42 -77 -49 -82 -7 -4 -13 -17 -13 -28 0 -11 -10 -36
-21 -55 -12 -19 -21 -40 -21 -47 0 -6 -29 -60 -64 -119 -35 -59 -61 -110 -58
-113 4 -3 -2 -14 -11 -24 -9 -11 -17 -31 -17 -46 0 -15 -4 -26 -9 -26 -6 0
-18 -17 -27 -37 -10 -20 -21 -37 -25 -37 -7 0 -26 -71 -23 -86 1 -4 -12 -19
-30 -34 -18 -15 -30 -33 -28 -40 3 -7 -7 -35 -20 -62 -13 -27 -24 -54 -24 -59
0 -6 -7 -13 -15 -16 -8 -4 -18 -20 -22 -37 -4 -17 -19 -47 -33 -66 -15 -20
-35 -52 -46 -72 -11 -21 -39 -59 -62 -84 -23 -26 -43 -55 -43 -63 0 -9 -15
-32 -33 -52 -39 -41 -103 -133 -103 -147 0 -5 -8 -12 -16 -15 -9 -4 -16 -10
-15 -15 3 -18 -2 -33 -14 -46 -20 -20 -71 -110 -71 -125 0 -35 -148 -187 -212
-218 -25 -12 -61 -37 -80 -54 -19 -18 -48 -39 -63 -48 -16 -9 -42 -25 -60 -37
-17 -11 -38 -23 -47 -27 -9 -4 -24 -15 -34 -24 -61 -58 -284 -232 -296 -232
-22 0 -121 -89 -121 -109 0 -7 -29 -34 -64 -60 -35 -25 -85 -63 -110 -83 -89
-70 -108 -84 -118 -84 -5 0 -18 -9 -29 -21 -10 -12 -22 -21 -27 -21 -4 0 -23
-14 -41 -30 -100 -90 -163 -138 -183 -138 -9 0 -16 -4 -16 -8 0 -5 -18 -15
-40 -23 -22 -8 -42 -17 -44 -21 -3 -4 -32 -20 -63 -36 -183 -92 -254 -131
-271 -146 -10 -9 -41 -27 -68 -39 -27 -12 -52 -26 -55 -31 -3 -5 -28 -12 -55
-16 -28 -4 -57 -13 -64 -19 -37 -31 -109 -65 -170 -81 -54 -15 -119 -44 -124
-55 -2 -4 -15 -8 -30 -8 -33 0 -83 -26 -91 -47 -5 -12 -14 -15 -33 -10 -19 5
-52 -7 -122 -42 -53 -26 -109 -48 -125 -48 -15 0 -37 -7 -48 -15 -11 -9 -29
-16 -39 -16 -10 0 -18 -5 -18 -11 0 -6 -9 -6 -27 0 -20 8 -28 7 -32 -5 -10
-26 -70 -20 -98 10 -14 15 -30 26 -35 26 -14 0 -102 73 -102 85 0 11 -50 86
-63 94 -5 3 -10 24 -12 47 -3 38 -6 42 -30 39 -32 -5 -52 -21 -52 -41 0 -8 -8
-22 -16 -31 -12 -11 -16 -39 -16 -97 0 -101 -8 -111 -86 -101 -31 4 -71 12
-90 19 -25 9 -37 9 -46 0 -8 -8 -17 -6 -31 9 -11 11 -31 19 -44 19 -13 0 -30
6 -37 14 -8 7 -26 13 -42 14 -15 1 -52 5 -81 10 -29 4 -64 8 -78 7 -15 0 -32
4 -39 9 -11 10 -34 17 -82 25 -12 2 -42 11 -68 20 -25 10 -55 15 -65 11 -11
-3 -19 -1 -19 4 0 6 -25 13 -56 16 -30 3 -78 10 -107 17 -29 6 -81 16 -116 22
-157 27 -272 53 -276 64 -2 5 -15 9 -29 9 -24 0 -71 18 -109 41 -9 5 -30 15
-48 23 -17 8 -55 31 -83 50 -32 22 -69 38 -97 41 -25 3 -43 9 -40 13 7 12 -24
34 -36 27 -14 -9 -71 21 -100 51 -12 13 -38 29 -58 37 -21 8 -55 31 -77 52
-22 21 -41 36 -42 33 -4 -8 -92 52 -91 63 0 5 -6 10 -14 10 -7 1 -22 13 -34
28 -11 14 -27 32 -35 39 -8 6 -32 30 -55 53 -22 22 -51 46 -64 52 -13 7 -37
33 -54 58 -17 25 -46 52 -64 59 -18 8 -56 38 -84 67 -29 30 -58 54 -64 54 -7
0 -21 9 -31 21 -11 11 -28 21 -38 21 -10 0 -22 4 -25 10 -4 6 -16 11 -27 11
-11 0 -21 5 -21 13 0 17 -72 71 -95 70 -12 0 -20 10 -22 29 -3 23 -9 30 -32
33 -20 2 -26 7 -22 18 3 9 -4 27 -17 41 -15 15 -22 32 -18 42 9 22 -10 57 -42
82 -13 11 -25 26 -24 35 0 8 -5 15 -10 15 -5 0 -12 11 -16 26 -4 15 -18 37
-33 49 -14 13 -26 31 -26 41 1 10 -11 32 -26 50 -14 17 -26 34 -26 37 0 4 -17
29 -37 58 -20 28 -36 61 -36 73 0 14 -16 32 -43 50 -25 17 -44 39 -48 55 -9
44 -37 120 -53 143 -8 11 -14 29 -14 39 0 11 -5 19 -11 19 -9 0 -33 46 -32 63
0 3 -10 15 -21 27 -11 12 -22 31 -25 42 -2 11 -15 44 -30 73 -14 29 -29 68
-33 86 -4 19 -16 41 -27 49 -11 7 -18 16 -15 19 3 3 -6 29 -21 58 -15 30 -27
59 -26 65 0 6 -5 12 -10 12 -6 0 -12 5 -13 13 -9 31 -68 123 -84 128 -9 4 -17
17 -17 31 0 14 -12 41 -27 61 -16 20 -28 39 -28 43 0 4 -16 30 -35 57 -19 28
-44 68 -54 90 -11 22 -28 46 -39 52 -10 7 -19 21 -19 32 0 17 -12 45 -70 156
-9 16 -19 32 -24 35 -5 3 -16 32 -23 66 -7 33 -19 64 -27 70 -7 6 -28 53 -46
105 -17 52 -40 107 -49 121 -9 14 -16 27 -15 29 1 1 -12 28 -29 59 -18 30 -32
66 -32 78 0 13 -10 33 -23 46 -13 13 -22 34 -21 54 0 18 -3 37 -8 43 -5 6 -12
27 -16 47 -4 20 -17 45 -27 56 -14 16 -17 27 -10 46 6 16 6 25 0 25 -6 0 -10
14 -11 31 0 17 -4 33 -9 36 -5 3 -11 25 -14 48 -3 23 -16 56 -29 74 -12 17
-24 50 -26 73 -1 22 -6 45 -9 51 -4 5 -7 28 -8 51 -3 79 -10 108 -27 108 -10
1 -14 6 -10 16 8 21 -20 85 -40 93 -23 9 -20 38 6 66 20 22 21 27 8 59 -7 19
-18 37 -23 41 -6 4 -12 30 -13 58 -9 132 -26 286 -38 324 -6 23 -13 63 -14 89
-2 25 -7 48 -13 50 -5 1 -8 57 -7 125 2 68 0 127 -3 133 -3 5 -8 31 -9 58 -2
27 -7 87 -10 133 -4 46 -10 149 -15 228 -5 83 -14 151 -21 159 -9 10 -9 17 -2
22 7 4 11 50 11 114 0 89 -3 112 -20 138 -17 25 -21 50 -21 113 0 44 4 83 10
87 21 13 3 510 -19 532 -18 18 -15 40 7 60 22 20 23 79 4 253 -9 72 -9 113 -2
120 13 14 13 96 -1 123 -7 12 -14 67 -16 123 -6 152 -5 185 3 188 10 3 9 209
-1 246 -7 22 -4 28 11 31 16 3 20 16 22 83 4 98 13 166 23 173 5 2 6 36 3 73
-4 48 -2 68 7 69 7 0 10 9 6 24 -4 14 1 43 10 65 9 21 17 69 17 106 0 37 4 67
9 67 11 0 23 109 27 252 2 61 8 134 14 163 5 29 8 164 6 301 -2 211 -6 253
-20 276 -13 19 -16 37 -10 66 4 22 7 105 6 185 -2 125 0 147 15 158 16 12 16
14 1 30 -21 20 -21 48 -1 75 9 11 16 39 16 61 0 23 5 50 11 62 14 26 20 107
20 274 0 101 3 136 13 140 11 4 14 54 13 233 -1 166 2 237 12 260 8 17 16 78
19 136 3 63 9 106 16 109 9 2 9 7 1 17 -8 10 -8 50 0 138 14 154 21 174 58
167 16 -2 29 -6 30 -8 1 -1 13 -18 25 -36 13 -19 30 -53 39 -77 8 -24 24 -56
35 -72 11 -15 22 -50 25 -78 6 -54 22 -81 49 -81 32 0 47 19 45 56 -1 19 7 57
18 83 19 44 19 53 6 96 -8 26 -24 57 -36 69 -12 12 -21 28 -21 36 0 7 -15 26
-32 42 -17 15 -31 35 -31 43 -1 16 -35 39 -68 45 -11 1 -26 8 -33 14 -8 6 -25
10 -38 8 -32 -5 -37 30 -10 74 14 25 18 46 15 79 -5 38 -2 49 15 59 19 12 19
17 8 51 -12 33 -11 41 7 65 11 16 20 44 20 62 -1 18 6 48 14 67 9 18 18 52 20
75 3 23 7 51 10 63 3 11 9 49 13 84 4 34 12 69 18 76 6 7 8 20 5 29 -4 8 -2
16 2 16 5 0 12 20 16 44 15 103 33 184 44 198 7 8 17 38 23 67 12 58 56 168
75 187 6 6 12 19 12 29 0 9 3 20 6 24 12 12 46 115 46 140 0 13 5 26 10 30 14
8 64 113 64 133 0 9 9 28 21 43 11 15 21 34 21 42 0 8 6 21 15 28 8 7 18 22
22 33 3 12 18 33 32 48 18 20 25 40 25 69 0 29 8 51 26 73 15 17 27 37 27 44
0 8 18 52 41 100 24 47 50 101 58 119 26 54 65 114 94 145 15 16 27 35 27 42
0 7 11 34 25 61 42 80 91 196 91 216 -1 10 9 30 20 45 12 15 26 44 32 65 6 22
24 55 42 74 17 20 32 42 32 49 0 7 11 22 24 32 13 11 28 33 32 49 7 29 15 41
51 81 10 11 19 23 19 26 0 3 21 37 47 76 26 39 47 77 47 85 0 8 10 25 21 37
41 43 84 99 84 110 0 6 14 21 30 34 17 12 34 36 37 53 3 17 11 36 17 43 42 50
53 65 53 75 0 7 21 25 47 41 35 22 47 37 47 56 0 16 18 44 50 76 27 28 64 67
82 87 18 19 49 50 68 68 82 74 357 364 357 376 0 23 80 127 110 143 16 8 38
14 49 12 10 -2 19 2 19 8 0 14 311 6 329 -8 12 -10 36 -14 165 -33 37 -6 83
-18 102 -27 19 -9 39 -14 45 -10 11 7 63 -41 63 -59 0 -5 4 -9 10 -9 6 0 11
-9 11 -20 0 -11 7 -34 15 -50 l16 -30 1 26 0 26 10 -25 c8 -19 7 -28 -3 -34
-9 -6 -6 -9 9 -9 36 0 58 57 45 116 -13 56 -35 83 -63 76 -15 -4 -20 0 -20 17
0 13 -8 26 -18 29 -10 4 -36 21 -58 37 -43 34 -63 41 -142 48 -36 3 -55 9 -55
18 0 10 -22 16 -71 21 -100 9 -189 15 -241 15 -78 1 -70 61 17 123 23 17 47
40 54 51 6 12 30 35 53 51 22 16 41 36 41 43 0 8 32 45 72 81 39 37 79 81 89
99 l16 33 61 -14 c163 -35 214 -70 214 -149 0 -18 10 -39 25 -54 25 -23 27
-24 53 -7 15 10 27 24 27 33 0 9 4 16 10 16 7 0 23 11 37 25 34 34 37 105 5
122 -12 6 -21 17 -21 24 0 35 -164 144 -216 144 -25 0 -28 22 -9 58 11 20 23
36 28 36 4 0 8 7 8 15 0 14 78 59 102 59 7 0 21 11 33 26 11 14 24 26 29 26 4
0 30 19 58 42 27 23 55 42 61 42 6 0 26 14 44 32 18 17 42 31 53 31 11 0 37
12 59 26 21 15 46 27 56 27 10 0 21 4 25 10 3 6 17 11 29 11 13 0 49 11 79 26
31 14 66 26 77 26 11 0 20 5 20 11 0 17 31 11 38 -7 4 -10 2 -25 -5 -36 -15
-24 -31 -88 -39 -152 -4 -29 -13 -60 -21 -69 -9 -9 -15 -24 -15 -33 0 -10 -5
-28 -10 -42 -15 -38 -36 -144 -30 -150 12 -12 61 16 61 36 0 11 4 24 10 27 6
4 11 16 11 27 0 11 4 21 10 21 6 0 11 13 11 29 0 15 9 54 21 86 13 32 27 78
33 103 6 25 17 48 25 51 9 3 15 20 15 41 0 23 9 45 26 63 15 16 27 35 27 43 0
11 15 14 65 13 36 -1 75 -5 87 -10 13 -5 29 -2 42 7 11 8 28 15 39 15 10 0 37
11 58 24 22 14 60 29 84 33 24 4 48 13 54 21 7 7 23 12 36 10 14 -1 50 4 80
12 31 8 60 12 65 9 6 -4 17 -1 25 6 10 8 63 13 152 14 86 0 137 5 137 12 1 7
3 7 6 0 2 -6 55 -10 131 -9z m2352 -699 c22 0 41 5 44 13 3 10 8 10 19 1 8 -7
41 -16 73 -20 40 -6 51 -10 37 -15 -20 -7 -20 -8 2 -13 12 -4 25 -1 28 6 4 8
8 8 12 -1 7 -16 42 -18 51 -4 3 5 0 12 -7 15 -7 3 -3 6 10 6 17 1 24 -5 24
-20 0 -15 7 -21 26 -21 14 0 28 -4 31 -9 3 -5 32 -12 63 -14 35 -3 66 -12 79
-24 11 -10 48 -22 81 -27 124 -18 178 -29 227 -46 27 -10 55 -15 60 -11 6 3
11 1 11 -5 0 -6 12 -8 31 -4 22 4 38 1 50 -10 11 -10 38 -20 61 -23 48 -8 131
-23 181 -32 18 -4 36 -12 40 -17 3 -6 12 -5 20 2 12 9 19 8 31 -4 9 -9 27 -19
40 -23 29 -9 114 -45 129 -55 67 -43 98 -66 104 -76 4 -6 18 -10 32 -10 14 0
26 -5 26 -11 0 -6 10 -10 22 -10 12 0 19 -5 16 -9 -7 -12 43 -61 53 -51 3 3
21 -5 39 -18 18 -13 50 -33 72 -44 22 -11 42 -28 46 -38 3 -11 13 -19 22 -19
8 0 35 -15 59 -34 23 -19 57 -39 74 -45 18 -6 38 -22 45 -36 7 -14 19 -26 28
-28 17 -2 52 -29 84 -64 12 -13 32 -24 46 -24 13 0 24 -6 24 -14 0 -8 20 -32
45 -53 62 -53 196 -189 196 -198 0 -4 6 -8 14 -8 13 -1 60 -36 60 -45 0 -8
146 -153 197 -196 24 -20 41 -40 38 -45 -3 -4 3 -8 14 -9 10 0 45 -32 77 -70
31 -39 73 -86 91 -106 19 -19 35 -39 35 -44 0 -5 8 -11 19 -15 17 -5 75 -81
75 -98 0 -4 22 -28 47 -53 26 -25 50 -57 54 -71 3 -14 10 -26 16 -26 5 -1 15
-2 22 -3 7 -1 13 -10 12 -20 -1 -10 3 -18 8 -18 6 0 8 -4 5 -8 -3 -5 15 -31
40 -58 25 -27 43 -50 39 -50 -4 0 1 -6 9 -13 9 -7 27 -29 39 -49 13 -21 35
-46 50 -57 14 -11 27 -28 27 -39 0 -10 4 -21 8 -24 5 -3 20 -34 32 -69 23 -62
44 -93 99 -148 16 -16 29 -36 29 -44 0 -8 6 -24 15 -35 8 -11 15 -28 16 -38 0
-10 18 -36 39 -58 22 -22 40 -44 41 -50 1 -6 2 -17 3 -24 0 -8 6 -11 12 -8 6
4 10 -6 10 -23 1 -16 7 -41 16 -55 8 -15 15 -37 15 -50 0 -13 4 -24 9 -24 8 0
80 -124 82 -142 2 -23 28 -78 35 -78 5 0 11 -18 15 -40 3 -22 15 -58 26 -81
11 -23 23 -58 27 -76 4 -19 11 -34 16 -34 4 0 14 -21 22 -45 7 -25 18 -49 22
-55 5 -5 9 -24 9 -42 1 -17 8 -41 16 -52 9 -11 16 -34 16 -50 0 -16 4 -29 10
-29 5 0 15 -19 21 -42 6 -23 18 -49 27 -57 8 -9 15 -28 15 -42 0 -24 24 -86
70 -181 8 -17 16 -39 18 -47 1 -8 9 -27 17 -41 8 -14 14 -33 12 -40 -2 -8 4
-23 14 -33 9 -10 20 -41 26 -69 5 -29 14 -53 21 -55 6 -3 11 -15 11 -29 0 -14
5 -28 10 -31 6 -4 14 -30 17 -59 6 -42 13 -55 37 -70 17 -10 31 -25 31 -35 0
-21 30 -83 40 -83 4 0 8 -8 9 -18 2 -30 36 -122 52 -140 8 -9 14 -25 14 -34 0
-10 5 -18 10 -18 6 0 8 -14 4 -31 -3 -19 -1 -38 6 -47 9 -11 10 -26 3 -51 -5
-20 -8 -52 -7 -72 2 -19 6 -89 9 -154 4 -66 9 -123 12 -128 3 -5 1 -12 -5 -15
-5 -4 -8 -13 -5 -20 3 -8 1 -33 -4 -57 -6 -25 -6 -47 -1 -52 10 -10 -9 -128
-23 -144 -8 -9 -135 116 -135 134 0 5 -19 29 -42 53 -59 61 -107 120 -145 176
-19 27 -48 62 -66 79 -18 16 -40 44 -49 61 -9 18 -28 44 -44 59 -15 15 -38 44
-51 63 -63 94 -105 151 -137 186 -19 21 -47 61 -63 89 -15 27 -34 49 -41 49
-8 0 -13 8 -13 17 0 9 -11 27 -24 40 -34 34 -81 98 -81 110 0 6 -14 22 -31 36
-17 14 -43 50 -59 81 -15 30 -48 76 -73 103 -25 26 -54 63 -65 82 -10 20 -25
36 -32 36 -7 0 -13 6 -13 14 0 8 -18 37 -40 66 -22 28 -46 64 -53 80 -6 16
-19 29 -28 29 -9 0 -16 4 -16 10 0 12 -5 19 -47 67 -15 17 -26 38 -26 48 0 9
-10 22 -21 29 -11 7 -37 39 -58 71 -22 32 -45 58 -53 58 -7 0 -16 13 -20 29
-10 39 -77 118 -100 118 -12 0 -24 12 -30 31 -6 17 -20 35 -31 41 -12 6 -32
29 -44 51 -13 22 -33 46 -44 53 -11 8 -19 19 -19 24 0 12 -14 28 -89 109 -32
35 -58 67 -58 71 0 5 -31 41 -67 80 -37 38 -90 99 -118 133 -94 118 -225 266
-289 328 -35 33 -68 71 -73 84 -5 13 -17 24 -25 24 -9 0 -16 5 -16 11 0 6 -36
46 -79 90 -44 44 -79 87 -79 94 0 8 -24 34 -52 59 -29 25 -53 49 -53 54 0 14
-81 108 -174 203 -90 91 -162 175 -163 189 0 5 -33 37 -72 72 -40 34 -73 68
-73 74 -1 7 -11 21 -23 32 -12 11 -39 45 -59 76 -21 30 -48 62 -61 71 -12 8
-29 26 -37 41 -7 14 -19 26 -25 26 -6 0 -25 14 -41 32 -16 17 -36 31 -43 31
-20 0 -241 219 -273 270 -15 25 -32 45 -38 45 -14 0 -225 211 -233 233 -4 10
-25 30 -47 44 -22 14 -58 45 -80 69 -23 23 -45 43 -50 43 -5 0 -9 6 -9 13 0
21 -57 71 -80 71 -12 0 -36 15 -53 34 -32 33 -130 211 -130 234 0 7 -11 24
-25 39 -14 15 -29 38 -33 50 -4 12 -13 20 -20 17 -13 -5 -37 33 -37 58 0 22
34 52 45 40 6 -6 29 -10 50 -10z m-4859 -138 c3 -12 1 -33 -4 -47 -12 -33
-153 -172 -174 -172 -9 0 -19 -9 -22 -20 -2 -11 -26 -36 -51 -55 -26 -19 -46
-38 -46 -42 0 -13 -70 -83 -83 -83 -6 0 -12 -12 -12 -26 0 -14 -8 -32 -17 -39
-9 -8 -29 -27 -44 -43 -15 -16 -37 -28 -49 -28 -12 0 -32 -8 -45 -17 -13 -9
-28 -14 -33 -10 -5 3 -12 -1 -15 -8 -2 -8 -25 -20 -51 -28 -25 -8 -50 -19 -55
-23 -6 -5 -18 -9 -26 -9 -9 0 -30 -7 -47 -16 -16 -8 -36 -15 -44 -15 -15 0
-83 -42 -110 -68 -10 -9 -27 -16 -39 -16 -21 0 -65 -37 -65 -54 0 -4 -10 -5
-21 -2 -12 3 -21 0 -21 -6 0 -7 -10 -12 -21 -12 -31 0 -116 -55 -116 -75 0
-10 -11 -21 -24 -25 -50 -15 -91 -40 -91 -53 0 -8 -9 -16 -19 -17 -10 0 -24
-2 -30 -2 -7 -1 -21 -9 -32 -18 -31 -26 -102 -69 -126 -77 -12 -4 -25 -14 -28
-22 -4 -9 -13 -15 -21 -15 -8 0 -21 -8 -28 -16 -7 -9 -22 -16 -33 -16 -12 0
-19 -7 -19 -20 0 -14 -10 -22 -32 -27 -17 -4 -37 -16 -42 -27 -6 -11 -8 -20
-5 -20 3 0 3 -6 -1 -12 -5 -8 -11 -6 -17 6 -10 16 -12 16 -30 -1 -11 -10 -20
-23 -20 -30 0 -8 -10 -11 -24 -9 -16 3 -32 -3 -44 -17 -11 -12 -25 -21 -32
-21 -6 0 -28 -12 -47 -27 -20 -14 -44 -26 -54 -26 -9 0 -24 -8 -32 -17 -8 -10
-34 -26 -59 -37 -24 -10 -44 -24 -44 -29 0 -6 -21 -21 -45 -32 -56 -27 -74
-40 -121 -82 -21 -19 -48 -37 -60 -40 -11 -4 -38 -24 -58 -46 -20 -21 -45 -41
-55 -45 -10 -4 -28 -24 -42 -44 -13 -21 -32 -37 -41 -37 -9 0 -20 -8 -23 -16
-4 -9 -13 -16 -20 -16 -8 0 -21 -8 -30 -18 -9 -10 -55 -54 -104 -97 -48 -44
-111 -102 -139 -129 -28 -28 -56 -50 -61 -50 -6 0 -10 -7 -10 -16 0 -9 -8 -19
-18 -23 -10 -4 -53 -42 -96 -85 -42 -42 -79 -75 -82 -72 -13 13 20 75 67 131
59 70 98 124 98 136 0 4 8 16 18 26 40 39 74 78 98 113 34 52 174 217 227 269
25 24 45 48 45 54 0 6 21 36 47 66 26 30 45 58 42 62 -2 5 6 14 19 20 13 7 42
39 65 71 22 31 54 70 70 86 16 15 30 33 30 39 0 6 8 18 18 27 36 33 129 137
129 145 0 5 35 45 79 89 43 45 87 94 97 109 22 34 95 115 205 228 44 45 81 87
81 92 0 5 10 6 21 3 15 -5 33 2 58 20 19 15 37 27 40 27 2 0 32 18 66 41 34
22 81 47 104 55 23 7 56 24 73 36 33 23 131 72 145 73 4 0 26 17 49 39 23 22
47 40 54 40 6 0 37 13 67 30 31 17 59 28 62 25 3 -3 12 -1 19 5 8 6 29 14 48
18 19 4 34 12 34 17 0 5 7 10 16 10 8 0 16 4 16 9 0 4 25 11 56 14 31 4 75 15
97 27 34 17 89 30 148 36 7 0 11 6 10 12 -1 6 15 10 38 8 34 -3 71 5 134 27 8
3 72 5 141 4 70 0 133 4 142 10 29 18 71 12 77 -12z m7138 -542 c20 -10 37
-22 39 -27 2 -4 12 -7 23 -7 10 0 22 -5 26 -11 4 -7 13 -7 25 -1 13 8 21 5 31
-10 6 -11 23 -20 37 -20 13 0 33 -10 43 -21 11 -12 28 -21 39 -21 10 0 19 -5
19 -11 0 -6 9 -10 21 -10 12 0 21 -4 21 -9 0 -11 75 -44 102 -44 12 0 29 -12
39 -26 13 -21 23 -25 42 -20 19 4 28 0 37 -16 7 -13 16 -20 21 -17 13 8 43 -6
37 -17 -4 -5 3 -9 15 -9 12 0 26 -9 33 -21 6 -12 17 -21 25 -21 27 0 84 -37
133 -88 11 -12 23 -18 27 -14 3 4 15 -5 27 -19 11 -14 26 -26 33 -26 7 0 23
-9 35 -20 12 -12 25 -18 28 -14 4 3 7 -2 7 -11 0 -10 13 -24 29 -33 17 -8 43
-32 58 -52 15 -20 37 -40 49 -43 12 -4 21 -13 21 -21 0 -8 14 -19 32 -25 17
-6 34 -19 38 -30 11 -28 56 -75 79 -82 11 -4 18 -9 15 -12 -7 -8 27 -45 42
-45 6 0 24 -19 39 -42 16 -23 40 -50 54 -59 15 -10 27 -23 27 -29 0 -17 89
-112 104 -112 7 0 11 -6 9 -13 -3 -18 21 -61 47 -84 19 -16 40 -50 83 -134 8
-14 24 -35 37 -45 13 -11 24 -26 24 -35 0 -8 5 -14 12 -14 6 0 8 -8 5 -17 -4
-9 3 -30 14 -46 12 -17 22 -39 22 -51 0 -11 6 -26 15 -33 8 -7 20 -29 27 -49
6 -19 16 -35 21 -35 5 0 15 -19 22 -42 7 -24 16 -42 20 -42 4 0 11 -22 15 -47
5 -34 12 -49 27 -53 12 -4 18 -11 15 -17 -10 -15 18 -83 34 -83 7 0 14 -5 14
-11 0 -6 -6 -8 -14 -4 -10 6 -10 5 0 -7 8 -7 14 -24 14 -37 0 -13 4 -26 9 -30
5 -3 13 -24 17 -47 4 -24 11 -45 16 -48 6 -4 10 -17 10 -29 1 -13 8 -32 16
-44 9 -11 16 -30 16 -42 0 -12 3 -27 8 -32 5 -6 18 -60 28 -120 11 -61 24
-117 29 -124 6 -7 11 -34 12 -59 1 -25 9 -54 16 -64 10 -11 14 -40 13 -82 -2
-71 12 -143 29 -154 6 -3 13 -54 15 -112 2 -58 8 -112 12 -120 5 -8 11 -43 13
-78 3 -72 23 -223 31 -247 7 -19 4 -160 -3 -168 -9 -9 -41 18 -44 38 -3 21
-36 105 -61 154 -8 17 -15 38 -15 48 0 9 -7 31 -15 47 -9 17 -16 35 -16 41 0
5 -9 23 -20 38 -11 15 -23 49 -27 75 -4 26 -11 52 -16 58 -7 9 -25 55 -72 184
-10 25 -21 53 -26 60 -4 7 -22 53 -39 102 -17 48 -40 104 -52 123 -11 19 -21
45 -21 58 0 12 -6 24 -12 26 -7 3 -19 30 -26 62 -21 96 -50 188 -68 220 -6 8
-15 27 -22 42 -8 14 -16 28 -20 31 -3 3 -27 48 -52 100 -24 52 -56 109 -69
127 -14 18 -25 36 -25 40 0 7 -16 28 -63 87 -6 7 -18 33 -28 58 -10 24 -29 58
-42 74 -14 17 -24 35 -24 41 0 6 -14 28 -30 49 -16 21 -43 64 -59 96 -16 32
-43 71 -59 87 -17 16 -31 34 -31 39 0 5 -11 21 -24 35 -42 46 -102 121 -102
127 0 12 -81 116 -120 152 -20 20 -37 42 -37 49 0 7 -8 15 -16 19 -9 3 -16 12
-16 19 0 8 -30 45 -66 84 -36 39 -103 113 -149 164 -46 52 -97 100 -113 107
-15 7 -31 21 -34 31 -4 11 -23 35 -44 54 -21 20 -95 91 -165 159 -69 68 -128
124 -132 124 -3 0 -41 35 -83 78 -43 44 -81 79 -85 79 -4 0 -25 17 -47 37 -22
20 -43 34 -46 31 -3 -2 -14 10 -25 27 -32 52 -7 67 56 34z m-9514 -607 c0 -11
-37 -63 -50 -71 -7 -5 -13 -15 -13 -23 0 -8 -23 -38 -51 -67 -28 -28 -57 -67
-65 -85 -9 -22 -19 -31 -29 -27 -17 7 -44 -22 -44 -48 0 -9 -22 -36 -48 -60
-26 -23 -47 -50 -47 -59 0 -9 -7 -16 -16 -16 -8 0 -15 -5 -15 -12 0 -6 -28
-44 -61 -84 -33 -41 -68 -88 -77 -104 -9 -17 -34 -46 -56 -65 -21 -19 -49 -52
-61 -74 -12 -22 -30 -42 -40 -45 -10 -3 -27 -19 -37 -34 -10 -16 -27 -35 -38
-43 -11 -7 -17 -18 -13 -24 3 -5 -6 -19 -20 -31 -15 -11 -33 -37 -40 -57 -7
-20 -19 -36 -27 -36 -7 0 -13 -5 -13 -10 0 -5 -16 -29 -35 -52 -18 -23 -46
-60 -60 -81 -14 -22 -44 -59 -66 -82 -40 -44 -154 -213 -154 -228 0 -5 -10
-14 -21 -20 -12 -6 -21 -16 -21 -22 0 -12 -32 -58 -87 -126 -22 -27 -39 -54
-39 -59 0 -6 -10 -19 -21 -29 -12 -11 -21 -23 -21 -27 0 -4 -17 -25 -37 -46
-20 -21 -37 -47 -37 -56 0 -9 -8 -25 -17 -36 -10 -10 -23 -28 -29 -39 -7 -10
-30 -42 -52 -70 -57 -74 -112 -162 -112 -179 0 -8 -7 -18 -15 -21 -8 -3 -35
-40 -59 -81 -25 -41 -58 -92 -73 -112 -16 -20 -40 -56 -53 -79 -13 -23 -35
-61 -48 -84 -14 -23 -35 -61 -47 -84 -13 -23 -33 -56 -46 -73 -12 -18 -29 -46
-37 -63 -9 -18 -31 -53 -50 -78 -19 -26 -33 -52 -31 -58 2 -6 -1 -17 -7 -25
-7 -7 -16 -19 -22 -26 -6 -7 -22 -39 -37 -70 -14 -32 -29 -63 -33 -69 -4 -6
-32 -58 -62 -116 -30 -57 -60 -111 -67 -120 -21 -29 -49 -84 -42 -84 4 0 -4
-15 -18 -34 -14 -19 -39 -63 -55 -97 -54 -116 -64 -135 -88 -159 -13 -13 -23
-30 -23 -38 0 -8 -17 -45 -36 -82 -20 -37 -34 -71 -31 -76 3 -5 -4 -16 -16
-24 -11 -8 -27 -33 -34 -54 -7 -22 -21 -46 -31 -53 -10 -7 -21 -30 -25 -51 -5
-23 -14 -40 -26 -43 -10 -2 -35 -37 -54 -77 -20 -40 -40 -73 -44 -73 -4 0 -8
-11 -8 -24 0 -14 -9 -35 -21 -47 -12 -12 -21 -32 -21 -43 0 -11 -7 -26 -16
-33 -8 -7 -15 -20 -15 -28 0 -7 -17 -36 -36 -64 -34 -47 -90 -170 -90 -197 0
-7 -8 -19 -16 -26 -9 -7 -16 -21 -16 -31 0 -11 -7 -25 -16 -32 -8 -7 -15 -21
-15 -31 -1 -11 -8 -25 -17 -32 -8 -8 -13 -16 -10 -19 2 -2 -2 -21 -11 -41 -8
-21 -15 -48 -15 -61 0 -13 -6 -26 -14 -29 -8 -3 -22 -32 -32 -64 -10 -32 -22
-59 -26 -61 -10 -4 -54 -108 -54 -128 0 -13 -12 -41 -59 -136 -8 -16 -15 -41
-14 -55 0 -14 -4 -25 -9 -25 -5 0 -15 -26 -22 -57 -7 -31 -19 -65 -27 -76 -9
-11 -15 -26 -16 -34 0 -8 -7 -20 -16 -27 -9 -6 -21 -42 -27 -79 -6 -38 -23
-93 -37 -122 -14 -30 -25 -62 -25 -71 0 -10 -24 -81 -52 -158 -29 -78 -53
-148 -53 -155 0 -8 -11 -19 -24 -25 -14 -6 -24 -20 -25 -36 0 -14 -11 -34 -23
-44 -12 -9 -22 -26 -22 -35 0 -10 -14 -35 -30 -56 -36 -45 -58 -86 -48 -86 4
0 0 -8 -8 -18 -9 -10 -22 -35 -30 -55 -8 -21 -25 -47 -38 -58 -12 -12 -28 -39
-35 -60 -7 -21 -16 -40 -20 -42 -9 -4 -64 -118 -96 -197 -23 -59 -29 -71 -64
-134 -11 -19 -20 -44 -20 -55 0 -11 -6 -26 -14 -34 -7 -8 -23 -40 -34 -71 -11
-32 -31 -74 -44 -94 -13 -19 -24 -44 -24 -54 1 -11 -4 -22 -9 -25 -5 -3 -18
-33 -28 -66 -10 -34 -22 -65 -27 -71 -5 -5 -9 -18 -9 -29 0 -11 -7 -22 -16
-25 -10 -4 -14 -14 -10 -25 3 -11 0 -23 -8 -28 -7 -5 -22 -28 -33 -51 -19 -41
-20 -41 -31 -18 -8 18 -7 52 3 121 8 53 13 117 12 141 -1 25 3 53 8 64 6 10
16 63 22 118 7 55 14 111 17 126 2 14 10 75 16 136 6 61 15 112 21 114 5 2 10
28 10 58 0 30 6 80 14 112 8 31 17 90 21 130 3 40 11 78 17 83 6 6 11 33 11
60 0 26 5 53 11 59 6 6 15 37 20 68 5 31 17 82 26 114 9 32 18 79 20 105 2 26
19 91 37 145 18 53 33 108 33 121 0 13 6 33 15 44 8 12 15 27 16 35 0 8 21 58
46 110 69 143 122 252 132 270 23 42 85 174 85 182 0 5 6 15 15 21 8 7 22 31
29 54 8 23 19 41 25 40 7 -2 17 16 24 39 7 23 17 42 22 42 5 0 12 14 16 31 3
17 18 48 32 68 14 21 25 45 26 53 0 9 4 16 10 16 6 0 11 5 11 13 0 7 12 34 26
60 13 26 32 63 40 81 9 19 21 35 26 35 5 0 20 24 34 55 14 30 36 68 49 84 13
17 24 39 24 50 0 10 5 22 11 26 6 4 22 29 35 56 13 27 44 81 68 119 24 39 43
74 43 77 1 3 10 14 22 26 11 12 21 28 21 37 0 8 4 16 10 16 5 0 19 20 30 44
12 25 33 56 48 70 15 14 27 33 27 43 0 9 14 31 32 47 17 17 31 41 31 54 0 13
11 32 24 43 24 20 57 69 67 100 3 10 9 19 13 19 4 0 14 16 22 36 8 20 18 37
22 37 4 0 10 8 14 18 7 21 11 26 83 138 28 43 54 86 57 95 3 9 21 36 40 59 19
23 39 61 45 85 7 24 30 64 52 89 22 26 66 89 96 141 31 52 64 100 74 107 11 8
22 27 26 44 4 17 14 37 22 44 8 6 15 18 15 25 0 7 9 21 21 32 12 10 21 25 21
33 0 8 4 14 9 14 6 0 17 18 25 39 9 22 26 49 38 60 13 11 23 28 23 38 0 11 11
33 26 50 14 17 26 36 26 43 0 6 14 26 30 45 17 19 38 49 47 66 25 45 43 73 50
79 4 3 17 27 30 53 13 25 32 56 42 68 10 11 30 42 44 68 13 26 40 66 58 89 18
23 43 62 56 87 13 24 27 45 31 45 5 0 24 26 44 58 31 53 47 74 95 130 8 9 22
32 31 53 17 36 63 89 101 117 22 17 55 66 55 83 0 23 77 127 101 137 14 5 25
14 25 19 0 6 17 26 38 45 21 19 41 42 45 52 3 9 27 33 53 53 26 20 49 45 52
56 2 12 7 23 11 26 4 3 22 25 40 50 17 25 57 66 88 91 31 26 63 57 72 70 9 13
28 36 42 51 15 15 37 41 50 57 13 17 39 38 57 48 19 10 40 27 45 38 16 29 222
236 236 236 6 0 11 7 11 15 0 9 6 16 13 16 8 0 49 36 92 79 43 44 94 89 113
101 19 12 34 28 34 37 0 18 72 87 92 87 7 0 20 15 29 32 9 18 27 37 40 43 13
6 31 25 41 42 10 18 26 31 39 31 12 0 22 -3 22 -6z m9414 -1449 c3 -14 10 -24
14 -21 9 5 70 -64 88 -100 7 -13 17 -23 23 -23 17 1 47 -30 64 -68 9 -19 21
-32 26 -28 6 3 15 -8 20 -24 6 -16 25 -38 42 -48 17 -9 32 -24 32 -33 0 -8 11
-22 26 -32 14 -9 26 -12 26 -6 0 6 5 11 11 11 7 0 10 -6 7 -14 -6 -14 37 -96
67 -128 11 -12 36 -38 57 -59 20 -21 37 -46 37 -56 0 -10 8 -21 18 -23 11 -3
34 -30 53 -61 18 -30 52 -68 75 -84 31 -22 46 -41 54 -71 7 -28 34 -65 83
-117 40 -41 73 -81 73 -89 1 -19 33 -67 61 -89 13 -11 24 -28 24 -39 0 -10 18
-35 40 -56 23 -20 45 -47 48 -59 4 -12 11 -21 16 -21 18 0 127 -161 131 -192
0 -4 5 -8 11 -7 5 0 14 -8 18 -19 5 -10 22 -36 38 -56 15 -21 46 -62 69 -92
22 -30 47 -54 55 -54 8 0 15 -7 15 -14 0 -7 14 -29 31 -48 17 -19 32 -40 32
-47 0 -7 16 -30 36 -52 20 -22 37 -47 37 -55 0 -8 6 -12 15 -9 9 3 17 -4 22
-18 4 -13 17 -33 28 -45 11 -12 27 -36 34 -54 7 -17 26 -38 41 -46 15 -8 30
-23 34 -34 3 -10 17 -28 31 -39 14 -11 22 -23 19 -26 -4 -4 0 -15 9 -25 9 -10
19 -27 23 -38 4 -11 16 -22 28 -25 11 -3 20 -11 18 -17 -3 -16 45 -70 62 -70
8 0 14 -7 14 -16 0 -9 7 -19 15 -22 8 -3 17 -18 20 -34 3 -17 18 -41 32 -55
15 -14 27 -30 27 -37 0 -6 10 -20 23 -31 12 -11 26 -31 31 -45 6 -13 19 -27
31 -30 11 -3 31 -23 43 -44 13 -21 34 -48 48 -61 13 -13 24 -27 24 -33 0 -5
12 -17 26 -27 15 -9 27 -23 27 -30 0 -7 21 -26 47 -42 34 -22 49 -40 57 -68 6
-20 8 -41 5 -46 -12 -20 -18 -165 -11 -250 3 -37 1 -60 -7 -65 -7 -5 -13 -42
-14 -93 -1 -77 -17 -136 -36 -136 -3 0 -25 27 -47 60 -22 33 -48 72 -59 87
-11 14 -34 54 -52 89 -51 100 -57 108 -87 132 -15 12 -40 45 -54 74 -15 28
-31 51 -36 51 -16 0 -63 56 -63 74 0 9 -16 35 -36 58 -19 23 -47 63 -63 90
-16 27 -35 55 -43 61 -8 7 -27 39 -44 72 -16 33 -33 61 -38 63 -4 2 -17 22
-29 44 -11 23 -27 45 -34 49 -8 5 -35 50 -61 101 -25 50 -51 91 -58 91 -11 1
-67 79 -67 95 0 5 -6 13 -14 18 -8 4 -25 28 -37 52 -12 24 -39 62 -59 84 -20
22 -40 49 -43 60 -4 10 -14 28 -24 38 -32 36 -43 52 -43 60 0 22 -28 67 -44
72 -10 3 -29 29 -42 58 -13 28 -26 52 -30 52 -10 0 -73 103 -73 119 0 8 -10
22 -21 33 -12 10 -21 27 -21 36 0 10 -15 31 -33 48 -18 17 -41 48 -51 68 -10
20 -31 59 -46 86 -15 27 -28 56 -28 64 0 8 -10 24 -22 35 -13 11 -33 41 -45
67 -13 26 -50 89 -83 140 -34 51 -71 111 -83 134 -12 23 -26 44 -31 47 -6 4
-15 17 -21 29 -22 49 -86 144 -110 166 -20 17 -32 36 -96 156 -21 38 -48 80
-62 93 -13 14 -24 32 -24 39 0 8 -7 18 -15 22 -8 5 -22 26 -31 48 -9 22 -21
40 -27 40 -6 0 -18 15 -27 34 -9 18 -33 52 -53 74 -20 22 -36 44 -36 49 0 5
-13 23 -28 39 -35 38 -119 165 -119 181 0 22 62 -20 69 -47z m-174 -178 c0
-21 4 -47 10 -58 6 -12 15 -30 21 -42 6 -11 11 -27 11 -35 0 -7 15 -32 35 -55
19 -23 38 -54 42 -70 4 -16 12 -29 17 -29 6 0 11 -14 11 -31 0 -27 -5 -32 -25
-32 -33 0 -133 149 -133 199 0 18 -5 43 -12 56 -7 12 -14 47 -16 78 -3 50 -1
56 17 56 18 0 22 -7 22 -37z m541 -657 c1 -11 16 -37 35 -57 18 -21 33 -44 33
-52 0 -8 7 -20 15 -27 9 -7 16 -22 16 -32 0 -11 9 -22 20 -26 14 -4 19 -12 15
-22 -4 -9 -2 -20 3 -23 18 -13 66 -81 94 -134 14 -28 36 -60 49 -70 12 -11 19
-22 15 -25 -3 -4 -1 -16 5 -27 7 -14 7 -25 -2 -35 -10 -12 -16 -10 -37 13 -14
15 -25 33 -25 41 0 7 -11 26 -24 40 -13 15 -38 47 -55 70 -18 24 -47 59 -66
77 -19 19 -34 37 -34 41 0 4 -10 18 -22 31 -12 13 -31 42 -43 65 -12 23 -31
55 -41 70 -11 15 -20 43 -20 61 0 18 -5 43 -11 54 -6 11 -8 25 -5 30 9 15 84
-40 85 -63z m-12759 -2623 c-16 -33 -33 -69 -37 -80 -9 -25 -47 -109 -92 -205
-18 -38 -33 -74 -33 -81 0 -17 -43 -89 -50 -83 -6 6 58 215 71 232 4 6 19 44
32 84 13 41 30 79 38 85 8 7 14 24 14 37 0 14 18 54 39 89 l40 62 3 -40 c2
-28 -6 -59 -25 -100z m14483 -48 c24 -26 45 -55 45 -64 0 -9 12 -30 28 -46 43
-43 77 -92 77 -111 0 -9 8 -21 19 -28 12 -7 18 -20 15 -32 -3 -10 2 -30 11
-43 17 -27 27 -96 15 -108 -4 -4 -5 -18 -2 -31 4 -13 1 -27 -4 -30 -6 -4 -8
-23 -5 -43 4 -25 0 -45 -12 -63 -14 -22 -15 -30 -4 -47 11 -17 11 -26 1 -42
-8 -13 -9 -23 -3 -27 6 -4 8 -12 4 -18 -5 -7 -9 -22 -10 -34 -1 -12 -6 -35
-11 -53 -4 -17 -7 -51 -6 -76 1 -24 -2 -44 -8 -44 -5 0 -10 -23 -10 -50 0 -82
-20 -285 -29 -299 -2 -4 1 -17 8 -28 11 -16 10 -27 -5 -58 -18 -38 -39 -135
-35 -164 1 -9 -5 -37 -12 -62 -18 -61 -35 -38 -28 36 3 29 6 100 6 157 0 58 0
124 1 147 1 61 0 337 -2 478 0 66 -5 147 -10 179 -6 31 -13 99 -16 151 -5 94
-40 263 -59 285 -5 7 -9 49 -8 95 0 45 -2 91 -6 101 -13 31 8 21 55 -28z
m-14700 -741 c-6 -14 -15 -36 -20 -47 -10 -23 -45 -163 -66 -263 -8 -34 -24
-90 -37 -123 -13 -35 -20 -69 -16 -82 4 -14 2 -20 -7 -18 -13 3 -25 -39 -36
-134 -4 -29 -11 -60 -16 -70 -5 -10 -9 -30 -9 -45 0 -16 -8 -35 -16 -44 -9 -8
-16 -26 -16 -39 0 -13 -11 -68 -25 -122 -14 -55 -29 -119 -33 -142 -4 -23 -11
-46 -15 -52 -4 -6 -12 -34 -16 -63 -4 -29 -10 -67 -12 -84 -3 -18 -6 -42 -8
-55 -2 -13 -6 -27 -10 -31 -4 -4 -7 -22 -7 -41 0 -19 -5 -48 -12 -64 -12 -31
-37 -149 -50 -240 -21 -143 -36 -222 -44 -241 -13 -31 -40 -195 -37 -226 1
-14 -1 -31 -4 -37 -23 -33 -40 -116 -79 -383 -3 -20 -13 -56 -22 -81 -9 -24
-14 -48 -11 -53 3 -5 1 -16 -4 -24 -14 -21 -5 517 10 620 7 43 14 124 17 179
3 54 8 113 11 129 5 21 3 28 -5 23 -7 -4 -11 3 -11 20 0 15 3 27 8 27 11 0 30
111 39 221 11 131 32 259 89 519 11 52 23 117 27 145 3 27 10 50 16 50 5 0 10
14 10 31 0 17 4 32 9 32 5 0 13 18 17 41 4 24 11 45 16 48 6 4 10 15 10 27 0
11 9 40 20 65 11 24 40 94 65 155 24 60 53 121 64 135 10 14 19 36 19 49 0 14
6 28 13 33 7 4 32 48 55 98 23 49 47 96 54 105 7 8 22 38 35 66 21 46 24 49
37 32 10 -14 11 -26 3 -46z"/>
<path d="M10926 19163 c-21 -41 -51 -82 -69 -95 -24 -17 -29 -27 -21 -36 8
-10 -1 -19 -36 -37 -28 -15 -51 -36 -59 -54 -7 -16 -19 -35 -27 -42 -19 -16
-18 -37 2 -45 9 -4 18 1 22 12 4 10 16 28 27 39 11 12 44 52 74 90 29 37 62
74 73 81 10 8 19 20 19 28 0 8 11 22 26 31 20 14 26 26 26 59 0 23 -5 42 -10
42 -6 0 -27 -33 -47 -73z"/>
<path d="M12157 14969 c-31 -31 -60 -39 -85 -25 -13 7 -51 14 -84 15 -50 2
-65 -2 -86 -22 -15 -13 -26 -28 -26 -34 0 -5 -10 -15 -21 -22 -12 -7 -22 -19
-22 -26 0 -7 -15 -30 -32 -50 -31 -35 -32 -36 -47 -16 -8 11 -15 28 -15 39 0
10 -9 23 -21 30 -12 6 -21 20 -21 31 0 13 -7 21 -19 21 -10 0 -23 5 -29 10 -6
6 -33 14 -59 17 -45 7 -51 5 -76 -23 -14 -17 -26 -38 -27 -47 0 -9 -10 -25
-21 -36 -12 -10 -24 -37 -28 -59 -3 -23 -12 -40 -20 -40 -23 0 -46 12 -46 23
0 19 -96 103 -136 120 -67 28 -92 29 -126 4 -21 -15 -36 -38 -43 -67 -7 -24
-18 -48 -25 -54 -7 -6 -20 -41 -28 -79 -14 -61 -18 -68 -42 -68 -20 0 -31 10
-47 42 -11 24 -31 58 -44 75 -13 18 -24 37 -24 43 0 8 -55 64 -126 130 -46 43
-75 46 -152 16 -34 -12 -59 -38 -81 -80 -7 -15 -20 -35 -28 -45 -8 -10 -12
-25 -8 -34 8 -21 -22 -68 -42 -68 -8 0 -23 5 -33 11 -21 13 -76 -3 -76 -22 0
-6 -7 -10 -15 -10 -18 0 -26 -58 -27 -186 0 -132 30 -212 89 -235 12 -4 37
-39 57 -78 32 -64 34 -76 28 -129 -3 -31 -2 -63 3 -69 11 -13 -13 -175 -31
-208 -5 -10 -10 -39 -10 -63 0 -25 -6 -69 -14 -98 -20 -79 -17 -371 5 -405 9
-14 20 -39 24 -55 4 -16 23 -47 44 -69 20 -23 36 -48 36 -58 0 -9 5 -17 11
-17 6 0 14 -9 18 -20 19 -49 234 -271 272 -280 16 -4 40 -16 52 -27 12 -11 38
-21 58 -23 21 -2 56 -14 78 -28 35 -21 59 -26 162 -30 156 -6 231 -4 245 7 7
5 66 8 132 6 107 -3 122 -1 149 18 17 12 31 28 31 37 0 23 63 56 106 56 21 0
44 8 51 16 7 9 25 16 41 16 15 0 39 7 54 15 14 9 38 21 52 28 14 6 34 16 44
21 10 5 59 14 109 19 57 7 103 18 125 32 19 12 46 22 61 22 14 0 32 6 38 15 7
8 19 13 25 10 19 -6 123 160 123 196 0 16 4 32 9 35 5 3 12 26 14 51 3 25 13
62 23 82 9 20 19 59 21 87 4 47 1 56 -39 107 -24 30 -49 56 -55 56 -5 1 -22 9
-35 18 -14 10 -39 19 -56 20 -17 2 -36 8 -43 14 -6 7 -28 12 -49 12 -21 0 -47
7 -58 15 -20 15 -20 16 4 62 26 50 32 117 13 136 -6 7 -11 19 -11 29 0 9 -21
32 -45 50 -25 19 -51 43 -58 54 -6 11 -28 23 -47 27 -19 4 -58 21 -88 38 -29
16 -62 30 -74 30 -11 0 -25 5 -30 10 -6 6 -50 13 -99 18 -51 4 -95 13 -103 21
-8 8 -30 15 -48 15 -149 5 -208 9 -248 13 -26 4 -93 9 -147 12 -55 3 -117 9
-137 14 -20 5 -65 5 -100 1 -34 -4 -90 -8 -123 -9 -32 0 -62 -5 -66 -11 -3 -6
-27 -10 -53 -10 -32 0 -49 -5 -53 -16 -4 -11 -22 -16 -57 -16 -42 0 -54 5 -72
28 -12 15 -22 41 -22 57 0 17 -8 34 -18 40 -15 8 -19 28 -22 97 -8 167 1 217
54 321 l39 76 33 -13 c36 -15 69 -61 71 -98 0 -12 12 -39 27 -61 14 -21 26
-43 26 -49 0 -15 42 -71 84 -111 30 -28 45 -34 81 -35 25 0 45 -5 45 -10 0
-21 30 -11 52 17 12 16 37 59 54 97 72 155 91 190 107 190 2 0 4 -6 4 -13 0
-7 15 -38 33 -69 19 -30 34 -59 34 -63 0 -20 64 -68 110 -81 70 -22 88 -20 99
11 7 18 17 25 33 23 25 -2 33 15 46 90 8 49 25 47 51 -6 11 -22 26 -39 34 -39
9 0 27 -7 41 -16 14 -9 31 -16 39 -14 7 1 26 -2 42 -6 36 -10 65 6 82 46 7 18
18 32 23 32 6 0 19 10 29 23 19 23 48 18 39 -8 -11 -27 32 -63 100 -82 36 -10
72 -21 79 -23 8 -2 14 -22 14 -48 0 -45 30 -107 57 -118 11 -4 16 -20 16 -48
0 -23 6 -45 13 -50 8 -4 19 -21 26 -37 9 -20 23 -30 50 -35 33 -6 40 -3 61 23
34 42 39 69 37 201 -1 96 2 122 16 137 21 24 22 33 3 48 -12 10 -13 35 -6 137
8 106 7 129 -6 143 -9 10 -25 42 -35 71 -22 63 -44 90 -86 107 -17 7 -31 17
-31 22 0 15 -112 11 -128 -5z m-864 -1043 c30 -14 45 -16 78 -7 30 8 47 8 66
-3 14 -7 61 -14 104 -14 261 -3 286 -7 381 -53 153 -76 230 -168 147 -176 -24
-2 -37 -12 -50 -37 -10 -18 -23 -41 -30 -51 -10 -13 -9 -20 5 -34 9 -9 20 -27
24 -40 9 -30 30 -50 52 -50 9 0 28 -12 41 -26 24 -27 25 -27 30 -5 6 21 11 22
62 15 30 -4 62 -11 71 -16 9 -4 30 -12 48 -17 29 -9 31 -13 29 -55 -1 -25 -7
-51 -13 -58 -5 -7 -8 -22 -4 -34 3 -14 -1 -24 -11 -28 -10 -3 -17 -13 -17 -22
0 -17 -54 -101 -78 -121 -10 -8 -30 -11 -57 -6 -30 5 -42 3 -46 -8 -3 -7 -26
-20 -52 -28 -25 -8 -52 -20 -61 -27 -21 -17 -79 -29 -103 -21 -30 9 -42 46
-43 141 -1 54 -7 98 -17 117 -8 16 -15 41 -15 55 0 14 -10 34 -21 44 -12 10
-24 27 -27 38 -3 10 -16 22 -29 26 -13 4 -31 14 -41 22 -13 12 -22 13 -38 4
-14 -7 -24 -7 -28 -1 -3 6 -33 18 -66 28 -72 22 -97 41 -97 74 0 15 -8 28 -18
31 -10 3 -27 10 -36 15 -10 5 -39 10 -66 11 -88 5 -142 -62 -117 -143 23 -72
36 -179 27 -227 -9 -51 -5 -322 6 -372 4 -22 1 -36 -10 -46 -20 -16 -80 -17
-110 -2 -11 7 -43 12 -70 12 -55 0 -84 12 -117 49 -12 14 -27 24 -32 22 -17
-5 -181 142 -181 162 0 4 -11 19 -24 33 -40 42 -60 73 -60 91 0 9 -13 34 -28
56 -26 38 -39 84 -37 128 0 11 3 73 5 136 2 70 9 126 18 142 8 15 15 44 15 65
1 22 15 66 32 98 25 50 33 58 52 53 12 -3 33 2 46 11 12 8 33 18 46 20 114 22
165 29 263 32 84 3 113 1 113 -9 0 -7 5 -4 11 6 13 23 30 23 78 0z m268 -767
c56 -63 75 -98 68 -127 -4 -15 -8 -47 -9 -70 -2 -54 -32 -89 -77 -89 -19 0
-37 5 -41 11 -4 6 -9 65 -11 131 -6 167 14 207 70 144z"/>
<path d="M14549 14765 c-17 -10 -44 -44 -61 -76 -17 -31 -37 -62 -45 -68 -17
-14 -42 -71 -51 -121 -12 -66 -91 -120 -91 -64 0 38 -220 119 -261 97 -28 -15
-48 10 -40 51 7 35 -7 50 -52 58 -21 4 -38 -1 -56 -16 -26 -22 -26 -23 -24
-203 4 -241 7 -296 20 -313 7 -7 15 -30 19 -50 9 -51 27 -84 44 -84 8 0 14 -5
14 -11 0 -14 63 -47 94 -48 53 -3 107 102 122 237 8 67 28 85 46 39 5 -13 16
-30 26 -38 9 -8 17 -18 17 -24 0 -21 65 -91 80 -85 8 3 20 1 27 -5 7 -5 22
-13 32 -16 27 -10 78 45 91 100 11 43 70 239 82 271 4 8 11 34 18 56 6 23 16
43 22 45 11 4 33 -64 57 -176 5 -26 17 -61 26 -78 9 -17 16 -40 16 -50 0 -10
4 -18 8 -18 4 0 8 -22 8 -50 0 -42 6 -56 38 -90 43 -46 109 -64 129 -36 6 9
21 18 33 20 12 2 20 12 20 25 0 11 7 26 15 32 8 6 18 45 23 89 13 120 23 152
46 152 23 0 69 -79 69 -117 0 -17 6 -25 18 -25 10 0 27 -12 38 -26 15 -20 30
-26 59 -26 75 0 105 11 112 40 3 15 12 40 20 54 19 38 43 102 63 166 15 46 21
55 40 52 14 -2 24 -12 26 -26 1 -13 11 -30 21 -37 10 -7 30 -37 44 -66 29 -61
76 -133 99 -152 9 -7 16 -18 16 -23 0 -16 66 -82 81 -82 7 0 14 -7 14 -16 0
-9 12 -21 28 -27 16 -6 34 -16 40 -24 6 -7 39 -29 73 -48 35 -20 66 -39 69
-43 2 -4 23 -5 45 -2 36 4 45 12 73 56 17 28 35 52 39 52 4 0 23 -9 43 -19 37
-19 170 -43 274 -49 33 -2 73 -12 89 -21 27 -16 33 -16 67 -2 64 29 71 39 77
115 5 61 4 72 -12 77 -10 4 -33 21 -52 38 -22 20 -40 29 -52 25 -111 -35 -164
-46 -204 -38 -24 4 -52 5 -63 2 -13 -3 -30 6 -50 28 -17 18 -41 33 -53 33 -12
0 -22 4 -22 10 0 6 -5 11 -12 11 -6 0 -28 14 -47 31 -30 26 -45 32 -91 32 -52
0 -59 -4 -101 -47 -47 -48 -69 -51 -81 -13 -4 12 -15 29 -25 38 -10 9 -25 33
-32 53 -8 20 -28 48 -44 61 -16 14 -29 30 -29 35 0 6 -9 23 -21 38 -12 14 -21
38 -21 51 0 18 -8 29 -26 36 -16 5 -26 18 -26 29 0 25 -76 107 -98 107 -8 0
-22 8 -29 17 -11 13 -26 16 -66 11 -61 -7 -98 -29 -114 -68 -7 -16 -22 -39
-33 -51 -11 -13 -26 -34 -32 -48 -15 -28 -46 -37 -55 -15 -3 9 -27 38 -52 65
-26 27 -46 53 -46 59 0 5 -11 9 -25 9 -13 0 -29 5 -35 11 -6 6 -34 10 -62 8
-47 -3 -51 -6 -59 -36 -5 -18 -16 -39 -24 -46 -9 -7 -16 -24 -16 -37 0 -14 -5
-28 -11 -32 -19 -11 -39 16 -46 63 -4 25 -15 54 -26 65 -10 12 -21 26 -23 32
-2 6 -26 35 -52 63 -41 46 -50 52 -72 44 -16 -6 -30 -6 -36 1 -14 14 -16 13
-53 -8z"/>
<path d="M14742 13939 c-26 -9 -82 -21 -125 -27 -43 -7 -92 -18 -110 -25 -18
-8 -52 -20 -75 -27 -53 -17 -99 -51 -111 -81 -5 -13 -13 -23 -18 -21 -11 3
-107 -101 -107 -116 0 -6 -7 -13 -16 -17 -8 -3 -15 -12 -15 -21 0 -8 -7 -20
-16 -27 -16 -14 -15 -100 5 -222 5 -32 8 -65 7 -73 0 -9 3 -48 8 -89 6 -53 16
-82 34 -103 14 -17 24 -35 22 -41 -9 -28 216 -219 248 -209 6 1 32 -19 58 -45
40 -39 56 -48 93 -50 24 -2 44 -7 44 -12 0 -5 10 -7 22 -4 11 3 39 -3 62 -14
23 -11 53 -20 67 -20 14 0 31 -8 38 -16 8 -10 23 -13 37 -10 17 4 28 0 36 -13
6 -11 11 -13 11 -6 0 9 15 14 40 13 72 0 175 7 213 16 20 5 60 8 89 8 38 0 58
5 75 20 16 15 31 20 49 15 14 -3 42 0 61 8 19 8 66 18 104 22 37 4 75 12 84
16 8 5 40 4 71 -2 52 -9 58 -8 87 17 18 15 39 27 47 27 9 0 27 7 40 16 13 9
40 15 60 14 45 -1 119 26 167 63 20 15 41 26 45 25 5 -2 23 7 40 19 17 13 39
20 48 16 19 -7 86 59 107 105 14 31 16 74 3 82 -5 3 -12 37 -15 76 -9 87 -27
110 -116 136 -35 11 -68 24 -72 30 -11 16 21 46 52 50 34 4 90 98 67 113 -8 5
-11 14 -7 20 4 7 0 12 -8 12 -9 0 -22 10 -30 22 -11 17 -29 24 -69 28 -35 3
-61 12 -72 25 -10 11 -23 20 -30 20 -6 0 -27 14 -47 32 -20 17 -42 29 -49 26
-7 -2 -22 5 -32 17 -38 41 -103 62 -214 67 -198 10 -244 15 -258 26 -11 9 -46
13 -101 11 -75 -1 -87 1 -100 20 -13 18 -22 21 -49 15 -56 -13 -134 -6 -148
13 -8 10 -20 15 -30 11 -9 -4 -19 -2 -23 3 -3 5 -28 9 -55 10 -54 0 -108 6
-149 15 -15 3 -48 -1 -74 -9z m200 -215 c128 -19 200 -33 244 -48 24 -8 69
-14 100 -14 37 0 62 -5 74 -16 24 -21 38 -21 69 -1 23 16 29 15 68 -5 46 -23
88 -26 153 -11 27 6 46 6 52 -1 6 -5 27 -10 47 -10 43 0 64 -14 81 -52 9 -20
28 -32 71 -45 63 -20 107 -62 94 -91 -4 -9 -8 -32 -8 -52 -1 -20 -7 -38 -13
-40 -7 -2 -18 -21 -25 -42 -14 -41 -2 -62 37 -69 52 -10 75 -21 92 -44 23 -31
14 -56 -22 -64 -42 -10 -85 -30 -85 -39 0 -5 -5 -6 -11 -2 -6 4 -19 1 -27 -6
-12 -10 -19 -10 -28 -1 -20 20 -46 14 -65 -14 -11 -18 -27 -26 -47 -26 -16 0
-36 -8 -43 -17 -8 -9 -20 -14 -27 -11 -8 3 -39 1 -70 -3 -34 -6 -63 -5 -75 1
-13 7 -27 7 -42 0 -12 -6 -45 -14 -72 -18 -27 -3 -52 -10 -55 -15 -3 -5 -15
-7 -26 -4 -17 5 -19 10 -11 25 6 11 11 39 11 63 0 23 4 52 10 62 7 14 6 31 -5
57 -9 21 -16 54 -16 74 0 53 -36 117 -77 133 -55 23 -74 46 -67 82 7 35 -8 53
-28 32 -9 -10 -9 -14 1 -17 29 -11 12 -32 -30 -38 -37 -5 -50 -2 -75 19 -37
31 -44 32 -94 5 -22 -12 -44 -21 -50 -21 -19 0 -84 -69 -84 -88 0 -10 -7 -20
-15 -23 -28 -11 -36 -63 -34 -228 2 -180 5 -171 -61 -166 -18 2 -36 7 -42 12
-5 6 -17 10 -26 10 -9 0 -22 9 -30 21 -8 13 -24 21 -42 21 -17 0 -34 8 -42 21
-7 12 -19 21 -26 21 -15 0 -70 53 -70 68 0 5 -16 28 -36 52 -30 37 -37 56 -47
134 -9 64 -9 98 -1 119 6 16 8 43 5 58 -10 42 17 95 75 151 54 53 83 69 125
69 15 0 37 7 49 15 13 8 52 18 86 22 35 3 65 8 68 11 3 3 19 2 37 -1 18 -3 63
-10 101 -15z m210 -504 c0 -11 4 -23 9 -26 16 -10 6 -109 -13 -130 -9 -11 -17
-29 -17 -40 0 -48 -67 -63 -107 -24 -20 20 -21 30 -15 91 4 38 9 73 12 77 3 5
26 11 52 15 39 6 47 11 47 31 0 13 3 26 7 30 11 11 25 -3 25 -24z"/>
<path d="M13007 12792 c-10 -2 -21 -17 -25 -33 -17 -76 -25 -96 -55 -138 -18
-25 -33 -53 -33 -63 0 -10 -9 -30 -21 -45 -12 -15 -21 -34 -21 -43 0 -9 -9
-23 -21 -30 -12 -7 -21 -21 -21 -30 0 -9 -10 -26 -22 -37 -12 -11 -33 -45 -47
-75 -13 -30 -32 -58 -40 -61 -9 -4 -21 -22 -27 -41 -7 -19 -21 -43 -32 -53
-12 -10 -21 -32 -21 -49 0 -16 -5 -29 -11 -29 -5 0 -28 -28 -49 -61 -21 -33
-44 -66 -51 -73 -7 -7 -15 -36 -19 -65 -4 -30 -12 -53 -17 -53 -5 0 -21 -25
-35 -56 -14 -30 -36 -61 -48 -68 -20 -12 -22 -20 -16 -66 5 -38 2 -65 -11
-101 -11 -27 -20 -56 -21 -66 0 -9 -10 -45 -20 -79 -37 -123 -41 -141 -35
-156 3 -9 -5 -26 -20 -40 -23 -21 -26 -31 -20 -68 5 -32 2 -46 -10 -56 -9 -8
-16 -22 -16 -32 0 -9 -4 -21 -8 -25 -4 -5 -9 -35 -10 -68 -1 -32 -3 -78 -5
-101 -2 -23 1 -50 7 -60 11 -20 -13 -103 -30 -103 -7 0 -5 -4 2 -9 12 -7 13
-29 5 -113 -7 -68 -6 -112 1 -128 7 -17 7 -27 -2 -36 -7 -7 -12 -20 -12 -30 0
-10 -6 -20 -12 -22 -7 -2 -13 -16 -15 -30 -2 -14 -12 -48 -22 -75 -16 -42 -17
-53 -5 -75 12 -21 11 -29 -3 -51 -16 -25 -16 -27 9 -50 15 -14 27 -31 27 -39
0 -7 11 -31 26 -52 15 -22 29 -51 33 -66 9 -41 33 -91 51 -106 8 -7 16 -19 16
-27 0 -9 6 -12 16 -8 9 3 27 -4 41 -17 24 -23 76 -27 263 -22 127 3 310 -3
315 -11 4 -5 25 -9 47 -9 25 0 44 -6 50 -16 7 -13 22 -14 92 -6 57 6 88 6 97
-2 10 -8 19 -6 32 5 10 8 41 26 69 39 28 14 54 33 56 44 3 11 15 20 28 20 15
0 54 31 108 86 66 67 87 96 93 127 4 22 21 53 38 70 22 22 29 38 25 52 -4 14
6 38 31 73 28 40 33 54 21 54 -13 0 -16 8 -14 36 2 26 -3 41 -20 56 -14 12
-23 32 -23 51 0 30 -13 46 -78 95 -51 39 -149 30 -160 -14 -5 -19 -13 -25 -37
-25 -30 0 -40 -14 -19 -26 21 -14 11 -64 -16 -79 -32 -17 -34 -28 -5 -37 26
-8 26 -27 0 -70 -12 -19 -21 -43 -21 -54 0 -10 -10 -29 -22 -42 -12 -12 -20
-30 -17 -40 6 -22 -11 -51 -30 -51 -9 0 -15 -7 -15 -15 0 -29 -37 -58 -77 -60
-23 -2 -44 -10 -49 -19 -7 -11 -22 -15 -54 -12 -28 2 -47 -2 -53 -11 -6 -11
-15 -10 -43 6 -41 25 -237 58 -374 64 -108 4 -110 5 -129 73 -6 23 -16 53 -23
66 -14 30 12 79 44 84 17 3 19 9 13 37 -5 19 -6 51 -3 72 3 25 -2 48 -15 67
-11 18 -21 56 -24 98 -9 144 -2 466 12 480 4 4 8 23 8 42 0 19 5 38 11 41 5 4
10 18 10 32 0 14 5 28 11 32 7 4 9 18 6 31 -4 14 -2 28 4 31 6 4 11 28 11 53
0 27 4 47 11 47 7 0 9 10 5 26 -5 20 -2 27 10 27 10 0 16 10 16 28 0 45 18 99
42 125 16 16 20 30 15 45 -4 15 1 36 15 60 12 20 25 55 29 78 3 23 10 42 15
42 5 0 10 9 10 21 0 29 17 60 54 99 21 22 28 39 24 55 -6 28 24 80 42 73 15
-6 37 35 37 67 0 11 5 21 11 21 7 0 9 8 5 21 -4 12 -2 21 5 21 6 0 19 15 27
34 9 18 32 54 52 79 20 25 37 55 37 66 0 11 7 23 15 27 9 3 16 19 16 36 0 17
6 34 14 37 9 3 14 23 15 53 0 27 8 63 16 81 19 40 50 169 50 209 0 16 -8 43
-17 61 -15 29 -29 34 -70 23z"/>
<path d="M14398 10262 c-13 -3 -23 -9 -23 -14 0 -4 -10 -11 -21 -14 -32 -8
-27 -65 10 -128 17 -29 31 -60 31 -70 1 -21 51 -109 94 -164 17 -21 33 -56 37
-77 6 -35 63 -136 82 -144 4 -2 8 -12 8 -22 0 -19 59 -138 73 -147 5 -3 11
-15 15 -27 8 -23 93 -120 105 -120 15 0 99 -111 114 -150 4 -10 13 -19 21 -19
7 0 26 -20 42 -45 55 -82 103 -149 126 -174 24 -26 48 -80 57 -130 3 -16 14
-35 24 -42 10 -7 27 -36 37 -65 11 -29 24 -58 29 -65 5 -7 7 -21 4 -32 -4 -10
-1 -47 5 -82 26 -150 35 -656 12 -664 -7 -2 -13 4 -13 14 0 10 -10 42 -23 69
-19 42 -29 53 -60 61 -49 14 -72 14 -80 0 -4 -7 -19 -9 -32 -5 -35 8 -107 -39
-126 -83 -11 -28 -19 -34 -39 -30 -20 4 -27 -1 -32 -18 -3 -13 -10 -20 -16
-17 -6 4 -26 -3 -45 -14 -55 -33 -86 -46 -106 -43 -10 1 -18 -3 -18 -9 0 -16
-63 -29 -120 -24 l-50 4 6 35 c6 31 2 38 -36 68 -39 31 -48 34 -95 28 -67 -8
-135 -48 -181 -108 -35 -45 -37 -49 -24 -81 19 -45 10 -101 -16 -101 -10 0
-22 -5 -25 -11 -4 -6 -15 -11 -24 -11 -10 0 -26 -13 -35 -30 -12 -20 -29 -32
-54 -37 -21 -3 -40 -13 -43 -21 -3 -7 -17 -17 -31 -20 -33 -9 -179 -91 -184
-104 -3 -5 -14 -14 -27 -19 -12 -6 -36 -19 -54 -30 -17 -11 -45 -21 -61 -21
-19 -1 -41 -12 -59 -32 -21 -22 -35 -29 -51 -25 -14 4 -41 -5 -71 -23 -35 -20
-59 -27 -85 -24 -30 4 -40 0 -53 -19 -12 -19 -22 -22 -48 -18 -21 3 -56 -3
-91 -16 -31 -12 -60 -19 -65 -16 -5 2 -23 -3 -40 -12 -18 -9 -67 -19 -108 -21
-42 -3 -80 -10 -86 -16 -6 -5 -49 -10 -97 -10 -48 0 -87 -4 -87 -10 0 -14
-127 -17 -231 -6 -32 4 -75 8 -95 9 -20 1 -47 8 -60 15 -15 9 -25 9 -29 3 -10
-16 -72 -13 -95 4 -12 9 -29 16 -39 16 -21 1 -115 43 -125 57 -4 6 -5 17 -2
27 3 9 2 12 -3 6 -14 -16 -59 -35 -83 -35 -57 0 -150 24 -181 47 -26 19 -42
24 -64 20 -24 -6 -33 -2 -47 19 -11 17 -31 28 -59 33 -23 4 -42 11 -42 16 0 5
-17 12 -36 16 -20 3 -47 18 -60 32 -13 13 -39 28 -58 31 -19 4 -42 16 -52 27
-10 11 -27 20 -39 20 -11 0 -41 14 -67 31 -26 17 -50 32 -54 32 -4 0 -13 9
-21 21 -7 11 -20 21 -28 21 -9 0 -16 9 -16 22 0 14 -5 20 -15 16 -8 -3 -28 11
-47 35 -18 22 -43 42 -56 44 -13 2 -29 15 -36 30 -7 14 -23 34 -35 44 -17 14
-21 25 -16 47 4 22 -1 37 -21 60 -14 17 -26 34 -26 38 0 4 -29 10 -64 13 -67
6 -92 -2 -135 -42 -31 -29 -36 -29 -60 -5 -11 10 -39 32 -64 48 -24 17 -44 34
-44 39 0 4 -22 23 -48 42 -26 19 -47 42 -47 52 0 10 -7 24 -16 31 -8 7 -15 19
-15 27 0 37 -141 60 -194 32 -17 -9 -33 -14 -36 -12 -8 8 22 73 47 100 13 14
27 39 31 55 4 16 11 29 16 29 5 0 10 9 10 20 0 11 9 23 20 27 11 4 26 20 34
37 7 18 20 32 27 32 7 0 13 8 13 19 0 10 12 30 26 44 15 13 27 28 27 33 0 7
44 74 94 141 9 12 29 30 45 40 16 10 29 24 29 29 0 6 21 43 47 82 26 39 47 76
47 82 0 7 9 17 21 23 11 6 32 31 45 54 13 24 29 54 37 68 7 14 30 37 50 52 20
16 36 35 36 42 0 8 5 15 11 15 5 0 10 7 10 16 0 9 7 19 16 22 9 4 23 22 31 41
7 19 29 43 46 53 18 11 33 25 33 32 0 7 13 20 29 31 16 10 48 36 71 57 49 46
173 155 224 197 20 16 59 51 87 79 28 27 55 50 59 50 5 0 16 9 26 21 11 12 31
21 49 21 38 0 72 28 76 63 4 36 -27 98 -62 121 -39 26 -74 20 -121 -23 -21
-19 -47 -35 -56 -35 -9 0 -33 -15 -53 -32 -20 -17 -42 -31 -50 -31 -8 0 -62
-48 -121 -105 -60 -58 -113 -105 -118 -105 -6 0 -20 -12 -31 -27 -12 -14 -27
-26 -34 -26 -7 0 -25 -13 -40 -29 -15 -16 -34 -35 -42 -42 -59 -56 -124 -126
-124 -134 0 -4 -11 -23 -24 -41 -14 -18 -36 -52 -50 -77 -13 -24 -30 -44 -36
-44 -7 0 -23 -22 -36 -49 -13 -27 -50 -80 -84 -119 -33 -38 -68 -81 -78 -95
-10 -14 -37 -52 -60 -84 -23 -32 -41 -63 -41 -69 0 -6 -20 -29 -43 -52 -24
-23 -53 -63 -65 -89 -13 -26 -34 -57 -47 -69 -13 -11 -24 -25 -24 -29 0 -5
-19 -31 -43 -57 -31 -36 -41 -55 -36 -72 3 -15 0 -25 -11 -29 -9 -3 -25 -27
-36 -52 -11 -25 -29 -57 -40 -71 -10 -14 -26 -42 -34 -62 -8 -20 -32 -63 -54
-94 -24 -36 -40 -71 -40 -90 0 -17 -5 -50 -11 -72 -16 -58 -21 -79 -30 -129
-5 -25 -14 -51 -21 -60 -7 -8 -15 -45 -17 -82 -2 -42 -9 -70 -19 -77 -17 -12
-17 -46 -2 -164 l8 -59 46 -7 c25 -4 51 -4 56 -1 6 4 11 3 11 -2 0 -4 5 -15
10 -24 8 -12 15 -10 38 15 22 24 25 35 18 52 -14 31 -6 49 24 49 26 0 26 0 19
86 -7 102 19 296 43 323 9 10 16 37 16 61 0 32 5 46 20 54 14 8 23 7 30 -2 19
-25 65 -165 59 -181 -4 -9 -1 -16 5 -16 14 0 47 -101 37 -117 -4 -7 0 -18 9
-24 11 -8 18 -35 22 -80 5 -70 27 -170 41 -184 4 -4 8 -16 8 -25 0 -9 10 -23
22 -30 12 -8 19 -17 16 -20 -3 -3 11 -26 31 -50 20 -24 36 -48 36 -53 0 -5 40
-46 89 -92 49 -46 90 -88 90 -94 0 -5 -8 -17 -17 -26 -13 -13 -15 -29 -9 -81
4 -35 14 -77 24 -92 15 -27 15 -30 -6 -53 -12 -13 -25 -43 -29 -66 -6 -41 -4
-45 44 -92 69 -67 89 -86 163 -162 35 -36 67 -66 70 -66 4 0 32 -24 63 -52 31
-29 62 -53 69 -53 7 0 24 -12 37 -27 14 -14 32 -24 40 -21 8 4 26 -3 41 -15
15 -12 36 -21 47 -21 24 0 90 -32 163 -81 30 -20 59 -33 64 -30 6 3 16 -2 24
-11 24 -29 116 -68 131 -56 8 7 16 7 19 1 3 -5 43 -13 88 -17 45 -4 91 -13
102 -19 12 -7 55 -13 97 -14 89 -3 119 -10 119 -32 0 -12 7 -14 30 -9 17 4 33
2 37 -4 9 -15 118 -15 127 0 4 6 17 8 30 4 27 -9 131 -25 196 -31 25 -2 66 -7
90 -11 27 -3 47 -2 51 5 4 6 17 8 30 5 15 -4 34 3 53 18 24 19 34 21 49 11 13
-8 22 -8 26 -2 8 14 54 14 63 0 10 -16 26 -13 26 5 0 13 16 16 84 16 46 0 84
4 84 8 0 5 19 6 42 4 23 -2 49 2 57 8 8 7 33 12 55 11 62 -3 276 13 277 20 0
4 45 8 100 9 90 2 102 4 120 26 16 20 28 24 69 22 28 -1 64 5 81 14 16 9 40
14 53 13 12 -2 29 1 36 5 7 4 29 9 49 11 21 2 44 9 52 16 8 7 35 13 59 14 33
2 49 9 64 27 11 14 26 23 34 20 7 -3 25 4 39 14 14 11 36 20 49 20 13 0 25 9
29 22 5 14 15 20 29 18 16 -2 26 7 38 31 12 24 24 34 38 33 33 -3 77 12 83 29
3 8 13 15 22 15 9 0 16 4 16 9 0 25 56 75 83 74 40 0 99 22 109 39 11 18 109
67 135 67 10 0 26 16 37 39 12 25 28 40 43 43 14 2 24 10 24 22 0 28 42 129
61 148 22 21 44 59 44 76 0 8 16 30 36 50 20 19 37 40 37 45 0 22 57 140 76
156 11 10 17 23 14 29 -4 6 6 50 21 97 16 48 30 97 31 108 2 12 4 21 5 21 2 0
4 12 5 27 2 14 8 47 14 73 6 26 16 70 22 98 6 28 14 56 19 62 4 7 8 36 9 65 3
71 3 69 15 69 6 0 11 -6 11 -13 0 -18 82 -71 110 -71 14 0 36 19 61 53 21 28
45 52 52 52 10 0 12 38 11 155 -3 225 -12 427 -24 500 -6 35 -11 89 -11 119 0
52 -6 91 -38 235 -13 59 -38 115 -106 234 -7 12 -13 31 -13 41 0 10 -9 27 -19
38 -10 10 -42 51 -71 89 -29 38 -61 72 -71 75 -10 4 -23 17 -30 29 -7 13 -21
29 -32 37 -10 8 -19 18 -19 23 0 13 -49 85 -75 109 -11 10 -48 55 -80 99 -33
45 -68 90 -78 101 -10 11 -26 42 -36 68 -9 27 -30 81 -47 120 -17 40 -30 81
-30 92 0 10 -4 21 -9 24 -4 3 -9 21 -11 40 -1 19 -8 38 -16 42 -7 4 -22 34
-33 67 -15 44 -37 77 -80 122 -61 62 -73 67 -143 54z m571 -2642 c-3 -13 -11
-63 -18 -112 -6 -50 -18 -100 -26 -113 -8 -13 -15 -36 -15 -51 0 -15 -4 -35
-10 -45 -5 -11 -13 -52 -17 -92 -3 -41 -15 -87 -26 -107 -11 -19 -20 -41 -20
-49 0 -7 -8 -16 -16 -20 -9 -3 -16 -13 -16 -22 0 -21 -27 -65 -67 -108 -17
-19 -28 -34 -23 -34 5 0 3 -7 -5 -16 -9 -12 -16 -13 -27 -4 -7 6 -18 8 -24 5
-6 -4 -23 1 -37 10 -34 23 -84 17 -88 -11 -2 -11 -8 -31 -14 -44 -7 -12 -9
-37 -5 -55 5 -28 2 -33 -20 -38 -15 -4 -32 -15 -39 -24 -7 -10 -27 -24 -43
-33 -17 -8 -44 -35 -61 -60 -17 -25 -46 -52 -65 -59 -18 -8 -47 -27 -63 -43
-16 -15 -34 -24 -40 -21 -6 4 -14 3 -18 -3 -12 -17 -80 -53 -114 -60 -22 -5
-41 -19 -52 -38 -10 -17 -23 -31 -29 -31 -6 -1 -25 -12 -42 -26 -17 -13 -37
-22 -45 -19 -8 3 -23 -2 -33 -11 -18 -17 -87 -36 -154 -43 -87 -10 -137 -21
-150 -34 -17 -17 -51 -18 -57 -2 -3 9 -9 9 -26 0 -13 -7 -37 -12 -55 -12 -19
0 -35 -6 -38 -15 -4 -9 -21 -15 -45 -15 -74 0 -89 -2 -130 -13 -34 -9 -44 -8
-51 3 -10 17 -62 20 -81 5 -9 -7 -17 -6 -26 2 -15 15 -63 16 -78 0 -6 -6 -39
-15 -73 -20 -128 -19 -167 -27 -189 -39 -13 -7 -37 -13 -53 -13 -17 0 -36 -6
-43 -12 -9 -10 -26 -9 -73 2 -33 7 -66 18 -73 23 -7 5 -23 6 -37 1 -25 -8
-249 -5 -264 4 -5 3 -43 6 -85 7 -57 1 -82 6 -97 20 -11 10 -27 18 -34 18 -8
0 -23 7 -32 16 -16 14 -21 14 -48 0 -35 -18 -59 -20 -73 -6 -6 5 -55 13 -110
17 -55 4 -104 11 -110 15 -6 3 -32 13 -58 20 -26 8 -63 19 -81 24 -19 6 -34
14 -34 20 0 11 -138 76 -184 87 -18 4 -49 22 -71 39 -21 17 -47 31 -59 31 -11
0 -26 7 -33 15 -7 9 -16 16 -20 16 -12 0 -122 105 -122 116 0 6 -12 21 -26 34
-15 13 -53 58 -84 100 -55 73 -59 76 -97 74 -22 -2 -45 2 -51 9 -13 13 -10 17
47 79 29 31 30 32 59 15 16 -10 37 -17 46 -17 9 0 22 -10 30 -21 10 -13 29
-21 60 -23 l47 -4 2 -46 c1 -25 6 -49 11 -54 5 -6 34 -5 67 1 31 6 73 14 92
17 19 3 38 13 41 20 3 8 14 15 26 15 22 0 51 55 51 98 0 37 -61 80 -113 81
-22 0 -63 11 -92 26 -29 14 -63 25 -75 26 -12 0 -28 7 -35 16 -8 8 -19 16 -26
16 -7 0 -22 9 -32 21 -11 11 -25 21 -31 21 -7 -1 -29 16 -49 36 -19 20 -44 36
-54 37 -10 0 -18 5 -18 10 0 6 -15 26 -32 46 -17 20 -31 41 -31 47 0 5 -11 13
-24 16 -25 7 -71 69 -71 96 0 9 -4 16 -8 16 -5 0 -17 17 -26 39 -14 31 -15 42
-5 54 9 12 9 14 0 9 -18 -12 -28 12 -29 74 -1 63 19 79 60 50 13 -9 29 -16 36
-16 8 0 36 -14 64 -30 27 -17 70 -34 94 -38 44 -7 61 -19 68 -47 4 -20 -79
-25 -115 -8 -32 15 -41 3 -26 -36 11 -28 9 -37 -8 -62 -12 -16 -21 -44 -21
-62 0 -32 1 -33 35 -26 41 7 74 -17 65 -47 -13 -42 80 -70 129 -39 7 5 21 5
30 2 21 -8 46 12 46 36 0 10 9 26 21 37 11 10 21 24 21 30 0 7 4 18 9 26 7 12
16 10 44 -10 20 -14 39 -31 43 -37 5 -6 31 -22 59 -34 28 -12 57 -29 65 -38 7
-9 20 -16 28 -16 8 0 32 -9 53 -21 22 -12 47 -21 57 -21 10 0 21 -5 25 -11 4
-7 19 -10 33 -7 17 3 28 -1 35 -14 6 -10 27 -21 48 -25 20 -4 59 -23 85 -43
26 -20 60 -39 75 -42 16 -4 42 -14 58 -22 28 -16 84 -27 301 -62 55 -9 109
-19 121 -23 33 -10 67 -15 147 -19 40 -3 104 -10 142 -16 96 -16 189 -18 220
-6 14 6 45 11 68 12 23 0 93 7 156 14 62 8 130 11 149 7 28 -5 45 0 81 22 42
27 75 34 164 35 19 0 42 8 50 16 11 11 37 16 84 16 43 0 66 4 62 11 -4 5 5 10
19 10 26 0 60 24 60 43 0 5 16 10 36 10 20 0 39 4 42 10 4 6 32 23 64 37 31
15 59 32 63 37 3 6 18 10 34 10 46 0 74 12 81 33 4 13 16 20 37 20 21 0 44 12
74 42 25 23 53 42 62 42 10 0 24 6 31 15 7 8 26 18 43 21 17 4 31 12 31 17 0
5 9 10 20 10 11 0 22 7 26 15 3 9 18 16 32 16 14 0 29 5 32 11 4 5 23 10 42
10 26 0 41 8 58 28 20 26 25 28 53 17 29 -11 34 -9 65 22 19 18 39 41 45 50 8
14 32 19 105 24 101 7 168 21 178 38 4 5 27 10 51 10 35 0 49 6 70 31 17 20
37 31 56 31 27 1 30 -2 24 -23z"/>
</g>
</svg>
